<mxfile host="Electron" agent="Mozilla/5.0 (Windows NT 10.0; Win64; x64) AppleWebKit/537.36 (KHTML, like Gecko) draw.io/24.7.8 Chrome/128.0.6613.36 Electron/32.0.1 Safari/537.36" version="24.7.8" pages="10">
  <diagram name="tugas1" id="miWOb4_XHW13EAPvKDP6">
    <mxGraphModel dx="1632" dy="642" grid="1" gridSize="10" guides="1" tooltips="1" connect="1" arrows="1" fold="1" page="1" pageScale="1" pageWidth="850" pageHeight="1100" math="0" shadow="0">
      <root>
        <mxCell id="0" />
        <mxCell id="1" parent="0" />
        <mxCell id="TSF17WVRCVp507LRhEWP-2" value="" style="edgeStyle=orthogonalEdgeStyle;rounded=0;orthogonalLoop=1;jettySize=auto;html=1;" edge="1" parent="1" source="o0ggVLZv9NWIQIgOkQOg-2" target="TSF17WVRCVp507LRhEWP-1">
          <mxGeometry relative="1" as="geometry" />
        </mxCell>
        <mxCell id="o0ggVLZv9NWIQIgOkQOg-2" value="Mulai" style="strokeWidth=2;html=1;shape=mxgraph.flowchart.terminator;whiteSpace=wrap;fontStyle=1;fillColor=#6666FF;" parent="1" vertex="1">
          <mxGeometry x="35" y="20" width="100" height="60" as="geometry" />
        </mxCell>
        <mxCell id="TSF17WVRCVp507LRhEWP-10" value="" style="edgeStyle=orthogonalEdgeStyle;rounded=0;orthogonalLoop=1;jettySize=auto;html=1;" edge="1" parent="1" source="o0ggVLZv9NWIQIgOkQOg-5" target="TSF17WVRCVp507LRhEWP-3">
          <mxGeometry relative="1" as="geometry" />
        </mxCell>
        <mxCell id="TSF17WVRCVp507LRhEWP-11" value="" style="edgeStyle=orthogonalEdgeStyle;rounded=0;orthogonalLoop=1;jettySize=auto;html=1;" edge="1" parent="1" source="o0ggVLZv9NWIQIgOkQOg-5" target="TSF17WVRCVp507LRhEWP-7">
          <mxGeometry relative="1" as="geometry" />
        </mxCell>
        <mxCell id="o0ggVLZv9NWIQIgOkQOg-5" value="Apakah suara&amp;nbsp;&lt;div&gt;bel pintu?&lt;/div&gt;" style="strokeWidth=2;html=1;shape=mxgraph.flowchart.decision;whiteSpace=wrap;fillColor=#6666FF;" parent="1" vertex="1">
          <mxGeometry x="36.25" y="220" width="97.5" height="110" as="geometry" />
        </mxCell>
        <mxCell id="o0ggVLZv9NWIQIgOkQOg-17" style="edgeStyle=orthogonalEdgeStyle;rounded=0;orthogonalLoop=1;jettySize=auto;html=1;" parent="1" target="o0ggVLZv9NWIQIgOkQOg-15" edge="1">
          <mxGeometry relative="1" as="geometry">
            <mxPoint x="250" y="530" as="targetPoint" />
            <Array as="points">
              <mxPoint x="85" y="490" />
              <mxPoint x="395" y="490" />
            </Array>
            <mxPoint x="85.05882352941171" y="440" as="sourcePoint" />
          </mxGeometry>
        </mxCell>
        <mxCell id="o0ggVLZv9NWIQIgOkQOg-30" style="edgeStyle=orthogonalEdgeStyle;rounded=0;orthogonalLoop=1;jettySize=auto;html=1;" parent="1" edge="1">
          <mxGeometry relative="1" as="geometry">
            <mxPoint x="240.03" y="490" as="targetPoint" />
            <mxPoint x="240.00058823529415" y="440" as="sourcePoint" />
          </mxGeometry>
        </mxCell>
        <mxCell id="o0ggVLZv9NWIQIgOkQOg-15" value="Selesai" style="strokeWidth=2;html=1;shape=mxgraph.flowchart.terminator;whiteSpace=wrap;fillColor=#6666FF;" parent="1" vertex="1">
          <mxGeometry x="345" y="530" width="100" height="60" as="geometry" />
        </mxCell>
        <mxCell id="o0ggVLZv9NWIQIgOkQOg-22" value="" style="endArrow=classic;html=1;rounded=0;" parent="1" edge="1">
          <mxGeometry width="50" height="50" relative="1" as="geometry">
            <mxPoint x="90" y="490" as="sourcePoint" />
            <mxPoint x="160" y="490" as="targetPoint" />
          </mxGeometry>
        </mxCell>
        <mxCell id="o0ggVLZv9NWIQIgOkQOg-23" value="" style="endArrow=classic;html=1;rounded=0;" parent="1" edge="1">
          <mxGeometry width="50" height="50" relative="1" as="geometry">
            <mxPoint x="255" y="490" as="sourcePoint" />
            <mxPoint x="325" y="490" as="targetPoint" />
          </mxGeometry>
        </mxCell>
        <mxCell id="ILL-AepveqIwUQ5bRrPF-1" value="true" style="text;html=1;align=center;verticalAlign=middle;resizable=0;points=[];autosize=1;strokeColor=none;fillColor=none;" parent="1" vertex="1">
          <mxGeometry x="90" y="320" width="40" height="30" as="geometry" />
        </mxCell>
        <mxCell id="ILL-AepveqIwUQ5bRrPF-2" value="true" style="text;html=1;align=center;verticalAlign=middle;resizable=0;points=[];autosize=1;strokeColor=none;fillColor=none;" parent="1" vertex="1">
          <mxGeometry x="190" y="320" width="40" height="30" as="geometry" />
        </mxCell>
        <mxCell id="ILL-AepveqIwUQ5bRrPF-3" value="false" style="text;html=1;align=center;verticalAlign=middle;resizable=0;points=[];autosize=1;strokeColor=none;fillColor=none;" parent="1" vertex="1">
          <mxGeometry x="130" y="280" width="50" height="30" as="geometry" />
        </mxCell>
        <mxCell id="ILL-AepveqIwUQ5bRrPF-4" value="false" style="text;html=1;align=center;verticalAlign=middle;resizable=0;points=[];autosize=1;strokeColor=none;fillColor=none;" parent="1" vertex="1">
          <mxGeometry x="270" y="280" width="50" height="30" as="geometry" />
        </mxCell>
        <mxCell id="TSF17WVRCVp507LRhEWP-8" value="" style="edgeStyle=orthogonalEdgeStyle;rounded=0;orthogonalLoop=1;jettySize=auto;html=1;" edge="1" parent="1" source="TSF17WVRCVp507LRhEWP-1" target="o0ggVLZv9NWIQIgOkQOg-5">
          <mxGeometry relative="1" as="geometry" />
        </mxCell>
        <mxCell id="TSF17WVRCVp507LRhEWP-1" value="Mendengar suara alarm berbunyi" style="whiteSpace=wrap;html=1;strokeWidth=2;fillColor=#6666FF;" vertex="1" parent="1">
          <mxGeometry x="25" y="120" width="120" height="60" as="geometry" />
        </mxCell>
        <mxCell id="TSF17WVRCVp507LRhEWP-3" value="Membuka dan memeriksa siapa yang berada di depan pintu" style="whiteSpace=wrap;html=1;strokeWidth=2;fillColor=#6666FF;" vertex="1" parent="1">
          <mxGeometry x="11.25" y="390" width="147.5" height="60" as="geometry" />
        </mxCell>
        <mxCell id="TSF17WVRCVp507LRhEWP-17" style="edgeStyle=orthogonalEdgeStyle;rounded=0;orthogonalLoop=1;jettySize=auto;html=1;" edge="1" parent="1" source="TSF17WVRCVp507LRhEWP-5">
          <mxGeometry relative="1" as="geometry">
            <mxPoint x="395" y="490" as="targetPoint" />
          </mxGeometry>
        </mxCell>
        <mxCell id="TSF17WVRCVp507LRhEWP-5" value="Mematikan&lt;div&gt;&lt;span style=&quot;background-color: initial;&quot;&gt;alarm&lt;/span&gt;&lt;/div&gt;" style="whiteSpace=wrap;html=1;strokeWidth=2;fillColor=#6666FF;" vertex="1" parent="1">
          <mxGeometry x="335" y="245" width="120" height="60" as="geometry" />
        </mxCell>
        <mxCell id="TSF17WVRCVp507LRhEWP-6" value="Angkat dan jawab telepon" style="whiteSpace=wrap;html=1;strokeWidth=2;fillColor=#6666FF;" vertex="1" parent="1">
          <mxGeometry x="176.25" y="390" width="120" height="60" as="geometry" />
        </mxCell>
        <mxCell id="TSF17WVRCVp507LRhEWP-12" value="" style="edgeStyle=orthogonalEdgeStyle;rounded=0;orthogonalLoop=1;jettySize=auto;html=1;" edge="1" parent="1" source="TSF17WVRCVp507LRhEWP-7" target="TSF17WVRCVp507LRhEWP-5">
          <mxGeometry relative="1" as="geometry" />
        </mxCell>
        <mxCell id="TSF17WVRCVp507LRhEWP-13" value="" style="edgeStyle=orthogonalEdgeStyle;rounded=0;orthogonalLoop=1;jettySize=auto;html=1;" edge="1" parent="1" source="TSF17WVRCVp507LRhEWP-7" target="TSF17WVRCVp507LRhEWP-6">
          <mxGeometry relative="1" as="geometry" />
        </mxCell>
        <mxCell id="TSF17WVRCVp507LRhEWP-7" value="Apakah suara&amp;nbsp;&lt;div&gt;telpon?&lt;/div&gt;" style="strokeWidth=2;html=1;shape=mxgraph.flowchart.decision;whiteSpace=wrap;fillColor=#6666FF;" vertex="1" parent="1">
          <mxGeometry x="187.5" y="220" width="97.5" height="110" as="geometry" />
        </mxCell>
      </root>
    </mxGraphModel>
  </diagram>
  <diagram id="j7kRvz1oCSY46gnhKA2N" name="tugas2">
    <mxGraphModel dx="1152" dy="453" grid="1" gridSize="10" guides="1" tooltips="1" connect="1" arrows="1" fold="1" page="1" pageScale="1" pageWidth="850" pageHeight="1100" math="0" shadow="0">
      <root>
        <mxCell id="0" />
        <mxCell id="1" parent="0" />
        <mxCell id="ncKB_x8kTswOBR2wUCor-8" value="" style="edgeStyle=orthogonalEdgeStyle;rounded=0;orthogonalLoop=1;jettySize=auto;html=1;fillColor=#6666FF;" parent="1" source="Oxl9ugzqYREt3vAEF6Jk-1" target="ncKB_x8kTswOBR2wUCor-6" edge="1">
          <mxGeometry relative="1" as="geometry" />
        </mxCell>
        <mxCell id="Oxl9ugzqYREt3vAEF6Jk-1" value="Mulai" style="strokeWidth=2;html=1;shape=mxgraph.flowchart.terminator;whiteSpace=wrap;fillColor=#6666FF;" parent="1" vertex="1">
          <mxGeometry x="70" y="125" width="100" height="60" as="geometry" />
        </mxCell>
        <mxCell id="Oxl9ugzqYREt3vAEF6Jk-2" value="Selesai" style="strokeWidth=2;html=1;shape=mxgraph.flowchart.terminator;whiteSpace=wrap;fillColor=#6666FF;" parent="1" vertex="1">
          <mxGeometry x="430" y="350" width="100" height="60" as="geometry" />
        </mxCell>
        <mxCell id="ncKB_x8kTswOBR2wUCor-18" value="" style="edgeStyle=orthogonalEdgeStyle;rounded=0;orthogonalLoop=1;jettySize=auto;html=1;fillColor=#6666FF;" parent="1" source="ncKB_x8kTswOBR2wUCor-5" target="ncKB_x8kTswOBR2wUCor-9" edge="1">
          <mxGeometry relative="1" as="geometry" />
        </mxCell>
        <mxCell id="ncKB_x8kTswOBR2wUCor-5" value="tuangkan bumbu pada piring" style="whiteSpace=wrap;html=1;strokeWidth=2;fillColor=#6666FF;" parent="1" vertex="1">
          <mxGeometry x="420" y="125" width="120" height="60" as="geometry" />
        </mxCell>
        <mxCell id="ncKB_x8kTswOBR2wUCor-17" value="" style="edgeStyle=orthogonalEdgeStyle;rounded=0;orthogonalLoop=1;jettySize=auto;html=1;fillColor=#6666FF;" parent="1" source="ncKB_x8kTswOBR2wUCor-6" target="ncKB_x8kTswOBR2wUCor-5" edge="1">
          <mxGeometry relative="1" as="geometry" />
        </mxCell>
        <mxCell id="ncKB_x8kTswOBR2wUCor-6" value="mie instan,&amp;nbsp;&lt;span style=&quot;background-color: initial;&quot;&gt;air, piring,&lt;/span&gt;&lt;div&gt;&lt;span style=&quot;background-color: initial;&quot;&gt;panci,&amp;nbsp;&lt;/span&gt;&lt;span style=&quot;background-color: initial;&quot;&gt;mie matang&lt;/span&gt;&lt;/div&gt;" style="shape=parallelogram;html=1;strokeWidth=2;perimeter=parallelogramPerimeter;whiteSpace=wrap;rounded=1;arcSize=12;size=0.23;fillColor=#6666FF;" parent="1" vertex="1">
          <mxGeometry x="210" y="120" width="180" height="70" as="geometry" />
        </mxCell>
        <mxCell id="ncKB_x8kTswOBR2wUCor-19" value="" style="edgeStyle=orthogonalEdgeStyle;rounded=0;orthogonalLoop=1;jettySize=auto;html=1;fillColor=#6666FF;" parent="1" source="ncKB_x8kTswOBR2wUCor-9" target="ncKB_x8kTswOBR2wUCor-10" edge="1">
          <mxGeometry relative="1" as="geometry" />
        </mxCell>
        <mxCell id="ncKB_x8kTswOBR2wUCor-9" value="panaskan air pada panci" style="whiteSpace=wrap;html=1;strokeWidth=2;fillColor=#6666FF;" parent="1" vertex="1">
          <mxGeometry x="590" y="125" width="120" height="60" as="geometry" />
        </mxCell>
        <mxCell id="ncKB_x8kTswOBR2wUCor-20" value="" style="edgeStyle=orthogonalEdgeStyle;rounded=0;orthogonalLoop=1;jettySize=auto;html=1;fillColor=#6666FF;" parent="1" source="ncKB_x8kTswOBR2wUCor-10" target="ncKB_x8kTswOBR2wUCor-11" edge="1">
          <mxGeometry relative="1" as="geometry" />
        </mxCell>
        <mxCell id="ncKB_x8kTswOBR2wUCor-10" value="tunggu hinga mendidih" style="whiteSpace=wrap;html=1;strokeWidth=2;fillColor=#6666FF;" parent="1" vertex="1">
          <mxGeometry x="590" y="240" width="120" height="60" as="geometry" />
        </mxCell>
        <mxCell id="ncKB_x8kTswOBR2wUCor-21" value="" style="edgeStyle=orthogonalEdgeStyle;rounded=0;orthogonalLoop=1;jettySize=auto;html=1;fillColor=#6666FF;" parent="1" source="ncKB_x8kTswOBR2wUCor-11" target="ncKB_x8kTswOBR2wUCor-12" edge="1">
          <mxGeometry relative="1" as="geometry" />
        </mxCell>
        <mxCell id="ncKB_x8kTswOBR2wUCor-11" value="masukan mie pada panci" style="whiteSpace=wrap;html=1;strokeWidth=2;fillColor=#6666FF;" parent="1" vertex="1">
          <mxGeometry x="420" y="240" width="120" height="60" as="geometry" />
        </mxCell>
        <mxCell id="ncKB_x8kTswOBR2wUCor-22" value="" style="edgeStyle=orthogonalEdgeStyle;rounded=0;orthogonalLoop=1;jettySize=auto;html=1;fillColor=#6666FF;" parent="1" source="ncKB_x8kTswOBR2wUCor-12" target="ncKB_x8kTswOBR2wUCor-13" edge="1">
          <mxGeometry relative="1" as="geometry" />
        </mxCell>
        <mxCell id="ncKB_x8kTswOBR2wUCor-12" value="tunggu hinga matang" style="whiteSpace=wrap;html=1;strokeWidth=2;fillColor=#6666FF;" parent="1" vertex="1">
          <mxGeometry x="240" y="240" width="120" height="60" as="geometry" />
        </mxCell>
        <mxCell id="ncKB_x8kTswOBR2wUCor-23" value="" style="edgeStyle=orthogonalEdgeStyle;rounded=0;orthogonalLoop=1;jettySize=auto;html=1;fillColor=#6666FF;" parent="1" source="ncKB_x8kTswOBR2wUCor-13" target="ncKB_x8kTswOBR2wUCor-14" edge="1">
          <mxGeometry relative="1" as="geometry" />
        </mxCell>
        <mxCell id="ncKB_x8kTswOBR2wUCor-13" value="tiriskan mie pada piring&amp;nbsp;" style="whiteSpace=wrap;html=1;strokeWidth=2;fillColor=#6666FF;" parent="1" vertex="1">
          <mxGeometry x="50" y="240" width="120" height="60" as="geometry" />
        </mxCell>
        <mxCell id="0GnbhXwii_gOQa0Xrncm-2" value="" style="edgeStyle=orthogonalEdgeStyle;rounded=0;orthogonalLoop=1;jettySize=auto;html=1;fillColor=#6666FF;" parent="1" source="ncKB_x8kTswOBR2wUCor-14" target="ncKB_x8kTswOBR2wUCor-15" edge="1">
          <mxGeometry relative="1" as="geometry" />
        </mxCell>
        <mxCell id="ncKB_x8kTswOBR2wUCor-14" value="aduk mie dengan bumbu sampai rata" style="whiteSpace=wrap;html=1;strokeWidth=2;fillColor=#6666FF;" parent="1" vertex="1">
          <mxGeometry x="50" y="350" width="120" height="60" as="geometry" />
        </mxCell>
        <mxCell id="ncKB_x8kTswOBR2wUCor-25" style="edgeStyle=orthogonalEdgeStyle;rounded=0;orthogonalLoop=1;jettySize=auto;html=1;fillColor=#6666FF;" parent="1" source="ncKB_x8kTswOBR2wUCor-15" target="Oxl9ugzqYREt3vAEF6Jk-2" edge="1">
          <mxGeometry relative="1" as="geometry">
            <mxPoint x="220" y="385.0000000000001" as="targetPoint" />
          </mxGeometry>
        </mxCell>
        <mxCell id="ncKB_x8kTswOBR2wUCor-15" value="mie matang" style="shape=parallelogram;html=1;strokeWidth=2;perimeter=parallelogramPerimeter;whiteSpace=wrap;rounded=1;arcSize=12;size=0.23;fillColor=#6666FF;" parent="1" vertex="1">
          <mxGeometry x="210" y="345" width="180" height="70" as="geometry" />
        </mxCell>
      </root>
    </mxGraphModel>
  </diagram>
  <diagram id="v35rPTUYaKBmsnUY_zCa" name="tugas3">
    <mxGraphModel dx="1399" dy="550" grid="1" gridSize="10" guides="1" tooltips="1" connect="1" arrows="1" fold="1" page="1" pageScale="1" pageWidth="850" pageHeight="1100" math="0" shadow="0">
      <root>
        <mxCell id="0" />
        <mxCell id="1" parent="0" />
        <mxCell id="LtrsR6WDN6V7kcmuWia4-2" value="" style="edgeStyle=orthogonalEdgeStyle;rounded=0;orthogonalLoop=1;jettySize=auto;html=1;fillColor=#6666FF;" parent="1" source="A3q9MVxCdTtIKkBqpQxx-1" target="LtrsR6WDN6V7kcmuWia4-1" edge="1">
          <mxGeometry relative="1" as="geometry" />
        </mxCell>
        <mxCell id="A3q9MVxCdTtIKkBqpQxx-1" value="Mulai" style="strokeWidth=2;html=1;shape=mxgraph.flowchart.terminator;whiteSpace=wrap;fillColor=#6666FF;" parent="1" vertex="1">
          <mxGeometry x="40" y="70" width="100" height="60" as="geometry" />
        </mxCell>
        <mxCell id="A3q9MVxCdTtIKkBqpQxx-2" value="Selesai" style="strokeWidth=2;html=1;shape=mxgraph.flowchart.terminator;whiteSpace=wrap;fillColor=#6666FF;" parent="1" vertex="1">
          <mxGeometry x="40" y="310" width="100" height="60" as="geometry" />
        </mxCell>
        <mxCell id="QscrAr2wtu8-EiXdCA6V-10" value="" style="edgeStyle=orthogonalEdgeStyle;rounded=0;orthogonalLoop=1;jettySize=auto;html=1;fillColor=#6666FF;" parent="1" source="LtrsR6WDN6V7kcmuWia4-1" target="mB_IGUlIld1gHt9el6ma-1" edge="1">
          <mxGeometry relative="1" as="geometry" />
        </mxCell>
        <mxCell id="LtrsR6WDN6V7kcmuWia4-1" value="thnKabisat" style="shape=parallelogram;perimeter=parallelogramPerimeter;whiteSpace=wrap;html=1;fixedSize=1;strokeWidth=2;fillColor=#6666FF;" parent="1" vertex="1">
          <mxGeometry x="30" y="180" width="120" height="60" as="geometry" />
        </mxCell>
        <mxCell id="QscrAr2wtu8-EiXdCA6V-3" value="" style="edgeStyle=orthogonalEdgeStyle;rounded=0;orthogonalLoop=1;jettySize=auto;html=1;fillColor=#6666FF;" parent="1" source="mB_IGUlIld1gHt9el6ma-1" target="mB_IGUlIld1gHt9el6ma-5" edge="1">
          <mxGeometry relative="1" as="geometry" />
        </mxCell>
        <mxCell id="QscrAr2wtu8-EiXdCA6V-11" value="" style="edgeStyle=orthogonalEdgeStyle;rounded=0;orthogonalLoop=1;jettySize=auto;html=1;" parent="1" source="mB_IGUlIld1gHt9el6ma-1" target="QscrAr2wtu8-EiXdCA6V-1" edge="1">
          <mxGeometry relative="1" as="geometry" />
        </mxCell>
        <mxCell id="mB_IGUlIld1gHt9el6ma-1" value="thnKabisat%400 = 0" style="rhombus;whiteSpace=wrap;html=1;strokeWidth=2;fillColor=#6666FF;" parent="1" vertex="1">
          <mxGeometry x="185" y="150" width="150" height="120" as="geometry" />
        </mxCell>
        <mxCell id="QscrAr2wtu8-EiXdCA6V-23" style="edgeStyle=orthogonalEdgeStyle;rounded=0;orthogonalLoop=1;jettySize=auto;html=1;fillColor=#6666FF;" parent="1" source="mB_IGUlIld1gHt9el6ma-5" edge="1">
          <mxGeometry relative="1" as="geometry">
            <mxPoint x="260" y="450" as="targetPoint" />
          </mxGeometry>
        </mxCell>
        <mxCell id="mB_IGUlIld1gHt9el6ma-5" value="&amp;nbsp;ket = &quot;tahun kabisat&quot;&amp;nbsp;" style="whiteSpace=wrap;html=1;strokeWidth=2;fillColor=#6666FF;" parent="1" vertex="1">
          <mxGeometry x="200" y="320" width="120" height="60" as="geometry" />
        </mxCell>
        <mxCell id="QscrAr2wtu8-EiXdCA6V-21" style="edgeStyle=orthogonalEdgeStyle;rounded=0;orthogonalLoop=1;jettySize=auto;html=1;fillColor=#6666FF;" parent="1" source="R8PGDjCxfI9ucVZfrlnh-3" edge="1">
          <mxGeometry relative="1" as="geometry">
            <mxPoint x="465" y="450" as="targetPoint" />
          </mxGeometry>
        </mxCell>
        <mxCell id="R8PGDjCxfI9ucVZfrlnh-3" value="ket = &quot;bukan tahun kabisat&quot;" style="whiteSpace=wrap;html=1;strokeWidth=2;fillColor=#6666FF;" parent="1" vertex="1">
          <mxGeometry x="405" y="320" width="120" height="60" as="geometry" />
        </mxCell>
        <mxCell id="QscrAr2wtu8-EiXdCA6V-20" style="edgeStyle=orthogonalEdgeStyle;rounded=0;orthogonalLoop=1;jettySize=auto;html=1;fillColor=#6666FF;" parent="1" source="R8PGDjCxfI9ucVZfrlnh-4" edge="1">
          <mxGeometry relative="1" as="geometry">
            <mxPoint x="560" y="450" as="targetPoint" />
          </mxGeometry>
        </mxCell>
        <mxCell id="R8PGDjCxfI9ucVZfrlnh-4" value="&amp;nbsp;ket = &quot;tahun kabisat&quot;&amp;nbsp;" style="whiteSpace=wrap;html=1;strokeWidth=2;fillColor=#6666FF;" parent="1" vertex="1">
          <mxGeometry x="605" y="320" width="120" height="60" as="geometry" />
        </mxCell>
        <mxCell id="R8PGDjCxfI9ucVZfrlnh-7" value="ket" style="shape=parallelogram;perimeter=parallelogramPerimeter;whiteSpace=wrap;html=1;fixedSize=1;strokeWidth=2;fillColor=#6666FF;" parent="1" vertex="1">
          <mxGeometry x="30" y="420" width="120" height="60" as="geometry" />
        </mxCell>
        <mxCell id="QscrAr2wtu8-EiXdCA6V-4" value="" style="edgeStyle=orthogonalEdgeStyle;rounded=0;orthogonalLoop=1;jettySize=auto;html=1;fillColor=#6666FF;" parent="1" source="QscrAr2wtu8-EiXdCA6V-1" target="R8PGDjCxfI9ucVZfrlnh-3" edge="1">
          <mxGeometry relative="1" as="geometry" />
        </mxCell>
        <mxCell id="QscrAr2wtu8-EiXdCA6V-12" value="" style="edgeStyle=orthogonalEdgeStyle;rounded=0;orthogonalLoop=1;jettySize=auto;html=1;fillColor=#6666FF;" parent="1" source="QscrAr2wtu8-EiXdCA6V-1" target="QscrAr2wtu8-EiXdCA6V-2" edge="1">
          <mxGeometry relative="1" as="geometry" />
        </mxCell>
        <mxCell id="QscrAr2wtu8-EiXdCA6V-1" value="thnKabisat%100 = 0" style="rhombus;whiteSpace=wrap;html=1;strokeWidth=2;fillColor=#6666FF;" parent="1" vertex="1">
          <mxGeometry x="390" y="150" width="150" height="120" as="geometry" />
        </mxCell>
        <mxCell id="QscrAr2wtu8-EiXdCA6V-5" value="" style="edgeStyle=orthogonalEdgeStyle;rounded=0;orthogonalLoop=1;jettySize=auto;html=1;fillColor=#6666FF;" parent="1" source="QscrAr2wtu8-EiXdCA6V-2" target="R8PGDjCxfI9ucVZfrlnh-4" edge="1">
          <mxGeometry relative="1" as="geometry" />
        </mxCell>
        <mxCell id="QscrAr2wtu8-EiXdCA6V-32" style="edgeStyle=orthogonalEdgeStyle;rounded=0;orthogonalLoop=1;jettySize=auto;html=1;entryX=0.5;entryY=0;entryDx=0;entryDy=0;fillColor=#6666FF;" parent="1" source="QscrAr2wtu8-EiXdCA6V-2" target="QscrAr2wtu8-EiXdCA6V-15" edge="1">
          <mxGeometry relative="1" as="geometry">
            <mxPoint x="760" y="410" as="targetPoint" />
            <Array as="points">
              <mxPoint x="760" y="210" />
            </Array>
          </mxGeometry>
        </mxCell>
        <mxCell id="QscrAr2wtu8-EiXdCA6V-2" value="thnKabisat%4= 0" style="rhombus;whiteSpace=wrap;html=1;strokeWidth=2;fillColor=#6666FF;" parent="1" vertex="1">
          <mxGeometry x="590" y="150" width="150" height="120" as="geometry" />
        </mxCell>
        <mxCell id="QscrAr2wtu8-EiXdCA6V-6" value="true" style="text;html=1;align=center;verticalAlign=middle;resizable=0;points=[];autosize=1;strokeColor=none;fillColor=none;" parent="1" vertex="1">
          <mxGeometry x="260" y="270" width="40" height="30" as="geometry" />
        </mxCell>
        <mxCell id="QscrAr2wtu8-EiXdCA6V-7" value="true" style="text;html=1;align=center;verticalAlign=middle;resizable=0;points=[];autosize=1;strokeColor=none;fillColor=none;" parent="1" vertex="1">
          <mxGeometry x="460" y="270" width="40" height="30" as="geometry" />
        </mxCell>
        <mxCell id="QscrAr2wtu8-EiXdCA6V-9" value="true" style="text;html=1;align=center;verticalAlign=middle;resizable=0;points=[];autosize=1;strokeColor=none;fillColor=none;" parent="1" vertex="1">
          <mxGeometry x="660" y="270" width="40" height="30" as="geometry" />
        </mxCell>
        <mxCell id="QscrAr2wtu8-EiXdCA6V-13" value="false" style="text;html=1;align=center;verticalAlign=middle;resizable=0;points=[];autosize=1;strokeColor=none;fillColor=none;" parent="1" vertex="1">
          <mxGeometry x="320" y="180" width="50" height="30" as="geometry" />
        </mxCell>
        <mxCell id="QscrAr2wtu8-EiXdCA6V-14" value="false" style="text;html=1;align=center;verticalAlign=middle;resizable=0;points=[];autosize=1;strokeColor=none;fillColor=none;" parent="1" vertex="1">
          <mxGeometry x="525" y="180" width="50" height="30" as="geometry" />
        </mxCell>
        <mxCell id="QscrAr2wtu8-EiXdCA6V-24" style="edgeStyle=orthogonalEdgeStyle;rounded=0;orthogonalLoop=1;jettySize=auto;html=1;entryX=1;entryY=0.5;entryDx=0;entryDy=0;fillColor=#6666FF;" parent="1" source="QscrAr2wtu8-EiXdCA6V-15" target="R8PGDjCxfI9ucVZfrlnh-7" edge="1">
          <mxGeometry relative="1" as="geometry" />
        </mxCell>
        <mxCell id="QscrAr2wtu8-EiXdCA6V-15" value="ket = &quot;bukan tahun kabisat&quot;" style="whiteSpace=wrap;html=1;strokeWidth=2;fillColor=#6666FF;" parent="1" vertex="1">
          <mxGeometry x="700" y="420" width="120" height="60" as="geometry" />
        </mxCell>
        <mxCell id="QscrAr2wtu8-EiXdCA6V-19" value="false" style="text;html=1;align=center;verticalAlign=middle;resizable=0;points=[];autosize=1;strokeColor=none;fillColor=none;" parent="1" vertex="1">
          <mxGeometry x="725" y="180" width="50" height="30" as="geometry" />
        </mxCell>
        <mxCell id="QscrAr2wtu8-EiXdCA6V-28" style="edgeStyle=orthogonalEdgeStyle;rounded=0;orthogonalLoop=1;jettySize=auto;html=1;entryX=0.5;entryY=1;entryDx=0;entryDy=0;entryPerimeter=0;fillColor=#6666FF;" parent="1" source="R8PGDjCxfI9ucVZfrlnh-7" target="A3q9MVxCdTtIKkBqpQxx-2" edge="1">
          <mxGeometry relative="1" as="geometry" />
        </mxCell>
        <mxCell id="QscrAr2wtu8-EiXdCA6V-30" value="" style="endArrow=classic;html=1;rounded=0;fillColor=#6666FF;" parent="1" edge="1">
          <mxGeometry width="50" height="50" relative="1" as="geometry">
            <mxPoint x="440" y="449.76" as="sourcePoint" />
            <mxPoint x="360" y="449.76" as="targetPoint" />
          </mxGeometry>
        </mxCell>
        <mxCell id="QscrAr2wtu8-EiXdCA6V-31" value="" style="endArrow=classic;html=1;rounded=0;fillColor=#6666FF;" parent="1" edge="1">
          <mxGeometry width="50" height="50" relative="1" as="geometry">
            <mxPoint x="540" y="449.76" as="sourcePoint" />
            <mxPoint x="490" y="450.16999999999996" as="targetPoint" />
          </mxGeometry>
        </mxCell>
      </root>
    </mxGraphModel>
  </diagram>
  <diagram name="tugas4" id="lLnxi1t-fLfN7UA2pPqc">
    <mxGraphModel dx="1152" dy="453" grid="1" gridSize="10" guides="1" tooltips="1" connect="1" arrows="1" fold="1" page="1" pageScale="1" pageWidth="850" pageHeight="1100" math="0" shadow="0">
      <root>
        <mxCell id="9IVKU0J4mOgpUBiPV7zC-0" />
        <mxCell id="9IVKU0J4mOgpUBiPV7zC-1" parent="9IVKU0J4mOgpUBiPV7zC-0" />
        <mxCell id="9IVKU0J4mOgpUBiPV7zC-2" value="" style="edgeStyle=orthogonalEdgeStyle;rounded=0;orthogonalLoop=1;jettySize=auto;html=1;fillColor=#6666FF;" parent="9IVKU0J4mOgpUBiPV7zC-1" source="9IVKU0J4mOgpUBiPV7zC-3" edge="1">
          <mxGeometry relative="1" as="geometry">
            <mxPoint x="90" y="180" as="targetPoint" />
          </mxGeometry>
        </mxCell>
        <mxCell id="9IVKU0J4mOgpUBiPV7zC-3" value="Mulai" style="strokeWidth=2;html=1;shape=mxgraph.flowchart.terminator;whiteSpace=wrap;fillColor=#6666FF;" parent="9IVKU0J4mOgpUBiPV7zC-1" vertex="1">
          <mxGeometry x="40" y="40" width="100" height="60" as="geometry" />
        </mxCell>
        <mxCell id="9IVKU0J4mOgpUBiPV7zC-4" value="Selesai" style="strokeWidth=2;html=1;shape=mxgraph.flowchart.terminator;whiteSpace=wrap;fillColor=#6666FF;" parent="9IVKU0J4mOgpUBiPV7zC-1" vertex="1">
          <mxGeometry x="420" y="310" width="100" height="60" as="geometry" />
        </mxCell>
        <mxCell id="Lr4_rLMel1ThA4YQbQ1y-11" style="edgeStyle=orthogonalEdgeStyle;rounded=0;orthogonalLoop=1;jettySize=auto;html=1;entryX=1;entryY=0.5;entryDx=0;entryDy=0;entryPerimeter=0;fillColor=#6666FF;" parent="9IVKU0J4mOgpUBiPV7zC-1" source="9IVKU0J4mOgpUBiPV7zC-16" target="9IVKU0J4mOgpUBiPV7zC-4" edge="1">
          <mxGeometry relative="1" as="geometry">
            <Array as="points">
              <mxPoint x="560" y="90" />
              <mxPoint x="560" y="340" />
            </Array>
          </mxGeometry>
        </mxCell>
        <mxCell id="9IVKU0J4mOgpUBiPV7zC-16" value="tiket berhasil&amp;nbsp;&lt;div&gt;di beli&lt;/div&gt;" style="shape=parallelogram;perimeter=parallelogramPerimeter;whiteSpace=wrap;html=1;fixedSize=1;strokeWidth=2;fillColor=#6666FF;" parent="9IVKU0J4mOgpUBiPV7zC-1" vertex="1">
          <mxGeometry x="420" y="60" width="120" height="60" as="geometry" />
        </mxCell>
        <mxCell id="Lr4_rLMel1ThA4YQbQ1y-2" value="" style="edgeStyle=orthogonalEdgeStyle;rounded=0;orthogonalLoop=1;jettySize=auto;html=1;fillColor=#6666FF;" parent="9IVKU0J4mOgpUBiPV7zC-1" source="9IVKU0J4mOgpUBiPV7zC-22" target="yjtqYbzkIhoJ_ttlzH1n-4" edge="1">
          <mxGeometry relative="1" as="geometry" />
        </mxCell>
        <mxCell id="Lr4_rLMel1ThA4YQbQ1y-3" value="" style="edgeStyle=orthogonalEdgeStyle;rounded=0;orthogonalLoop=1;jettySize=auto;html=1;fillColor=#6666FF;" parent="9IVKU0J4mOgpUBiPV7zC-1" source="9IVKU0J4mOgpUBiPV7zC-22" target="Lr4_rLMel1ThA4YQbQ1y-0" edge="1">
          <mxGeometry relative="1" as="geometry" />
        </mxCell>
        <mxCell id="9IVKU0J4mOgpUBiPV7zC-22" value="apakah pembayaran&lt;div&gt;cash?&lt;/div&gt;" style="rhombus;whiteSpace=wrap;html=1;strokeWidth=2;fillColor=#6666FF;" parent="9IVKU0J4mOgpUBiPV7zC-1" vertex="1">
          <mxGeometry x="205" y="170" width="150" height="120" as="geometry" />
        </mxCell>
        <mxCell id="yjtqYbzkIhoJ_ttlzH1n-5" value="" style="edgeStyle=orthogonalEdgeStyle;rounded=0;orthogonalLoop=1;jettySize=auto;html=1;fillColor=#6666FF;" parent="9IVKU0J4mOgpUBiPV7zC-1" source="9IVKU0J4mOgpUBiPV7zC-29" target="yjtqYbzkIhoJ_ttlzH1n-2" edge="1">
          <mxGeometry relative="1" as="geometry" />
        </mxCell>
        <mxCell id="9IVKU0J4mOgpUBiPV7zC-29" value="Menuji kasir bioskop" style="whiteSpace=wrap;html=1;strokeWidth=2;fillColor=#6666FF;" parent="9IVKU0J4mOgpUBiPV7zC-1" vertex="1">
          <mxGeometry x="30" y="180" width="120" height="60" as="geometry" />
        </mxCell>
        <mxCell id="yjtqYbzkIhoJ_ttlzH1n-6" value="" style="edgeStyle=orthogonalEdgeStyle;rounded=0;orthogonalLoop=1;jettySize=auto;html=1;fillColor=#6666FF;" parent="9IVKU0J4mOgpUBiPV7zC-1" source="yjtqYbzkIhoJ_ttlzH1n-2" target="yjtqYbzkIhoJ_ttlzH1n-3" edge="1">
          <mxGeometry relative="1" as="geometry" />
        </mxCell>
        <mxCell id="yjtqYbzkIhoJ_ttlzH1n-2" value="memilih film dan tempat duduk" style="whiteSpace=wrap;html=1;strokeWidth=2;fillColor=#6666FF;" parent="9IVKU0J4mOgpUBiPV7zC-1" vertex="1">
          <mxGeometry x="30" y="350" width="120" height="60" as="geometry" />
        </mxCell>
        <mxCell id="yjtqYbzkIhoJ_ttlzH1n-7" value="" style="edgeStyle=orthogonalEdgeStyle;rounded=0;orthogonalLoop=1;jettySize=auto;html=1;fillColor=#6666FF;" parent="9IVKU0J4mOgpUBiPV7zC-1" source="yjtqYbzkIhoJ_ttlzH1n-3" target="9IVKU0J4mOgpUBiPV7zC-22" edge="1">
          <mxGeometry relative="1" as="geometry" />
        </mxCell>
        <mxCell id="yjtqYbzkIhoJ_ttlzH1n-3" value="membayar&lt;div&gt;&lt;span style=&quot;background-color: initial;&quot;&gt;harga tiket&lt;/span&gt;&lt;/div&gt;" style="whiteSpace=wrap;html=1;strokeWidth=2;fillColor=#6666FF;" parent="9IVKU0J4mOgpUBiPV7zC-1" vertex="1">
          <mxGeometry x="220" y="350" width="120" height="60" as="geometry" />
        </mxCell>
        <mxCell id="Lr4_rLMel1ThA4YQbQ1y-6" value="" style="edgeStyle=orthogonalEdgeStyle;rounded=0;orthogonalLoop=1;jettySize=auto;html=1;fillColor=#6666FF;" parent="9IVKU0J4mOgpUBiPV7zC-1" source="yjtqYbzkIhoJ_ttlzH1n-4" target="9IVKU0J4mOgpUBiPV7zC-16" edge="1">
          <mxGeometry relative="1" as="geometry" />
        </mxCell>
        <mxCell id="yjtqYbzkIhoJ_ttlzH1n-4" value="memberikan uang ke kasir" style="whiteSpace=wrap;html=1;strokeWidth=2;fillColor=#6666FF;" parent="9IVKU0J4mOgpUBiPV7zC-1" vertex="1">
          <mxGeometry x="220" y="60" width="120" height="60" as="geometry" />
        </mxCell>
        <mxCell id="Lr4_rLMel1ThA4YQbQ1y-12" value="" style="edgeStyle=orthogonalEdgeStyle;rounded=0;orthogonalLoop=1;jettySize=auto;html=1;fillColor=#6666FF;" parent="9IVKU0J4mOgpUBiPV7zC-1" source="Lr4_rLMel1ThA4YQbQ1y-0" target="9IVKU0J4mOgpUBiPV7zC-16" edge="1">
          <mxGeometry relative="1" as="geometry" />
        </mxCell>
        <mxCell id="Lr4_rLMel1ThA4YQbQ1y-0" value="transfer bank untuk membayar tiket" style="whiteSpace=wrap;html=1;strokeWidth=2;fillColor=#6666FF;" parent="9IVKU0J4mOgpUBiPV7zC-1" vertex="1">
          <mxGeometry x="420" y="200" width="120" height="60" as="geometry" />
        </mxCell>
        <mxCell id="Lr4_rLMel1ThA4YQbQ1y-4" value="true" style="text;html=1;align=center;verticalAlign=middle;resizable=0;points=[];autosize=1;strokeColor=none;fillColor=none;" parent="9IVKU0J4mOgpUBiPV7zC-1" vertex="1">
          <mxGeometry x="280" y="140" width="40" height="30" as="geometry" />
        </mxCell>
        <mxCell id="Lr4_rLMel1ThA4YQbQ1y-5" value="false" style="text;html=1;align=center;verticalAlign=middle;resizable=0;points=[];autosize=1;strokeColor=none;fillColor=none;" parent="9IVKU0J4mOgpUBiPV7zC-1" vertex="1">
          <mxGeometry x="350" y="200" width="50" height="30" as="geometry" />
        </mxCell>
      </root>
    </mxGraphModel>
  </diagram>
  <diagram id="aAZ8-xnpILwxrc_34fAY" name="tugas5">
    <mxGraphModel dx="2176" dy="856" grid="1" gridSize="10" guides="1" tooltips="1" connect="1" arrows="1" fold="1" page="1" pageScale="1" pageWidth="850" pageHeight="1100" math="0" shadow="0">
      <root>
        <mxCell id="0" />
        <mxCell id="1" parent="0" />
        <mxCell id="ScqNB_H1BuARvnZRlSwz-2" value="" style="edgeStyle=orthogonalEdgeStyle;rounded=0;orthogonalLoop=1;jettySize=auto;html=1;fillColor=#6666FF;" parent="1" source="WBa5UF00KL751TKeaGFV-1" target="ScqNB_H1BuARvnZRlSwz-1" edge="1">
          <mxGeometry relative="1" as="geometry" />
        </mxCell>
        <mxCell id="WBa5UF00KL751TKeaGFV-1" value="Start" style="strokeWidth=2;html=1;shape=mxgraph.flowchart.terminator;whiteSpace=wrap;fillColor=#6666FF;" parent="1" vertex="1">
          <mxGeometry x="80" y="50" width="100" height="60" as="geometry" />
        </mxCell>
        <mxCell id="ScqNB_H1BuARvnZRlSwz-4" value="" style="edgeStyle=orthogonalEdgeStyle;rounded=0;orthogonalLoop=1;jettySize=auto;html=1;fillColor=#6666FF;" parent="1" source="ScqNB_H1BuARvnZRlSwz-1" target="ScqNB_H1BuARvnZRlSwz-3" edge="1">
          <mxGeometry relative="1" as="geometry" />
        </mxCell>
        <mxCell id="ScqNB_H1BuARvnZRlSwz-1" value="memulai dan mendeklarasikan variabel nilai" style="whiteSpace=wrap;html=1;strokeWidth=2;fillColor=#6666FF;" parent="1" vertex="1">
          <mxGeometry x="70" y="150" width="120" height="60" as="geometry" />
        </mxCell>
        <mxCell id="AWzNvF_KWm9DZEOG6BbP-2" value="" style="edgeStyle=orthogonalEdgeStyle;rounded=0;orthogonalLoop=1;jettySize=auto;html=1;fillColor=#6666FF;" parent="1" source="ScqNB_H1BuARvnZRlSwz-3" target="AWzNvF_KWm9DZEOG6BbP-1" edge="1">
          <mxGeometry relative="1" as="geometry" />
        </mxCell>
        <mxCell id="ScqNB_H1BuARvnZRlSwz-3" value="masukan nilai" style="shape=parallelogram;perimeter=parallelogramPerimeter;whiteSpace=wrap;html=1;fixedSize=1;strokeWidth=2;fillColor=#6666FF;" parent="1" vertex="1">
          <mxGeometry x="70" y="240" width="120" height="60" as="geometry" />
        </mxCell>
        <mxCell id="AWzNvF_KWm9DZEOG6BbP-4" value="" style="edgeStyle=orthogonalEdgeStyle;rounded=0;orthogonalLoop=1;jettySize=auto;html=1;fillColor=#6666FF;" parent="1" source="AWzNvF_KWm9DZEOG6BbP-1" target="AWzNvF_KWm9DZEOG6BbP-3" edge="1">
          <mxGeometry relative="1" as="geometry" />
        </mxCell>
        <mxCell id="AWzNvF_KWm9DZEOG6BbP-1" value="simpan nilai" style="shape=parallelogram;perimeter=parallelogramPerimeter;whiteSpace=wrap;html=1;fixedSize=1;strokeWidth=2;fillColor=#6666FF;" parent="1" vertex="1">
          <mxGeometry x="70" y="340" width="120" height="60" as="geometry" />
        </mxCell>
        <mxCell id="AWzNvF_KWm9DZEOG6BbP-6" value="" style="edgeStyle=orthogonalEdgeStyle;rounded=0;orthogonalLoop=1;jettySize=auto;html=1;fillColor=#6666FF;" parent="1" source="AWzNvF_KWm9DZEOG6BbP-3" target="AWzNvF_KWm9DZEOG6BbP-5" edge="1">
          <mxGeometry relative="1" as="geometry" />
        </mxCell>
        <mxCell id="AWzNvF_KWm9DZEOG6BbP-8" value="" style="edgeStyle=orthogonalEdgeStyle;rounded=0;orthogonalLoop=1;jettySize=auto;html=1;fillColor=#6666FF;" parent="1" source="AWzNvF_KWm9DZEOG6BbP-3" target="AWzNvF_KWm9DZEOG6BbP-7" edge="1">
          <mxGeometry relative="1" as="geometry" />
        </mxCell>
        <mxCell id="AWzNvF_KWm9DZEOG6BbP-3" value="cek apakah niali &amp;gt;= 50" style="rhombus;whiteSpace=wrap;html=1;strokeWidth=2;fillColor=#6666FF;" parent="1" vertex="1">
          <mxGeometry x="90" y="440" width="80" height="80" as="geometry" />
        </mxCell>
        <mxCell id="GHO2dUx31S_DN98KgnUh-2" value="" style="edgeStyle=orthogonalEdgeStyle;rounded=0;orthogonalLoop=1;jettySize=auto;html=1;fillColor=#6666FF;" parent="1" source="AWzNvF_KWm9DZEOG6BbP-5" target="AWzNvF_KWm9DZEOG6BbP-14" edge="1">
          <mxGeometry relative="1" as="geometry" />
        </mxCell>
        <mxCell id="AWzNvF_KWm9DZEOG6BbP-5" value="jika nilai &amp;lt; 50 tampilkan &quot;gagal&quot;" style="shape=parallelogram;perimeter=parallelogramPerimeter;whiteSpace=wrap;html=1;fixedSize=1;strokeWidth=2;fillColor=#6666FF;" parent="1" vertex="1">
          <mxGeometry x="70" y="560" width="120" height="60" as="geometry" />
        </mxCell>
        <mxCell id="AWzNvF_KWm9DZEOG6BbP-12" value="" style="edgeStyle=orthogonalEdgeStyle;rounded=0;orthogonalLoop=1;jettySize=auto;html=1;fillColor=#6666FF;" parent="1" source="AWzNvF_KWm9DZEOG6BbP-7" target="AWzNvF_KWm9DZEOG6BbP-11" edge="1">
          <mxGeometry relative="1" as="geometry" />
        </mxCell>
        <mxCell id="AWzNvF_KWm9DZEOG6BbP-7" value="jika nilai &amp;gt;= 50 tampilkan &quot;lulus&quot;" style="shape=parallelogram;perimeter=parallelogramPerimeter;whiteSpace=wrap;html=1;fixedSize=1;strokeWidth=2;fillColor=#6666FF;" parent="1" vertex="1">
          <mxGeometry x="240" y="450" width="120" height="60" as="geometry" />
        </mxCell>
        <mxCell id="AWzNvF_KWm9DZEOG6BbP-11" value="A" style="ellipse;whiteSpace=wrap;html=1;strokeWidth=2;fillColor=#6666FF;" parent="1" vertex="1">
          <mxGeometry x="425" y="465" width="25" height="30" as="geometry" />
        </mxCell>
        <mxCell id="AWzNvF_KWm9DZEOG6BbP-14" value="Stop" style="strokeWidth=2;html=1;shape=mxgraph.flowchart.terminator;whiteSpace=wrap;fillColor=#6666FF;" parent="1" vertex="1">
          <mxGeometry x="80" y="680" width="100" height="60" as="geometry" />
        </mxCell>
        <mxCell id="GHO2dUx31S_DN98KgnUh-4" value="" style="edgeStyle=orthogonalEdgeStyle;rounded=0;orthogonalLoop=1;jettySize=auto;html=1;fillColor=#6666FF;" parent="1" source="GHO2dUx31S_DN98KgnUh-1" target="AWzNvF_KWm9DZEOG6BbP-14" edge="1">
          <mxGeometry relative="1" as="geometry" />
        </mxCell>
        <mxCell id="GHO2dUx31S_DN98KgnUh-1" value="A" style="ellipse;whiteSpace=wrap;html=1;strokeWidth=2;fillColor=#6666FF;" parent="1" vertex="1">
          <mxGeometry x="20" y="640" width="25" height="30" as="geometry" />
        </mxCell>
        <mxCell id="GHO2dUx31S_DN98KgnUh-6" value="true" style="text;html=1;align=center;verticalAlign=middle;resizable=0;points=[];autosize=1;strokeColor=none;fillColor=none;" parent="1" vertex="1">
          <mxGeometry x="170" y="450" width="40" height="30" as="geometry" />
        </mxCell>
        <mxCell id="GHO2dUx31S_DN98KgnUh-7" value="false" style="text;html=1;align=center;verticalAlign=middle;resizable=0;points=[];autosize=1;strokeColor=none;fillColor=none;" parent="1" vertex="1">
          <mxGeometry x="130" y="520" width="50" height="30" as="geometry" />
        </mxCell>
      </root>
    </mxGraphModel>
  </diagram>
  <diagram name="tugas6" id="o2_etEzWwfet1xXxe2__">
    <mxGraphModel dx="1152" dy="453" grid="1" gridSize="10" guides="1" tooltips="1" connect="1" arrows="1" fold="1" page="1" pageScale="1" pageWidth="850" pageHeight="1100" math="0" shadow="0">
      <root>
        <mxCell id="WbYzUQSLJXm0DS_nstUM-0" />
        <mxCell id="WbYzUQSLJXm0DS_nstUM-1" parent="WbYzUQSLJXm0DS_nstUM-0" />
        <mxCell id="WbYzUQSLJXm0DS_nstUM-2" value="" style="edgeStyle=orthogonalEdgeStyle;rounded=0;orthogonalLoop=1;jettySize=auto;html=1;fillColor=#6666FF;" parent="WbYzUQSLJXm0DS_nstUM-1" source="WbYzUQSLJXm0DS_nstUM-3" target="WbYzUQSLJXm0DS_nstUM-5" edge="1">
          <mxGeometry relative="1" as="geometry" />
        </mxCell>
        <mxCell id="WbYzUQSLJXm0DS_nstUM-3" value="Start" style="strokeWidth=2;html=1;shape=mxgraph.flowchart.terminator;whiteSpace=wrap;fillColor=#6666FF;" parent="WbYzUQSLJXm0DS_nstUM-1" vertex="1">
          <mxGeometry x="80" y="50" width="100" height="60" as="geometry" />
        </mxCell>
        <mxCell id="WbYzUQSLJXm0DS_nstUM-4" value="" style="edgeStyle=orthogonalEdgeStyle;rounded=0;orthogonalLoop=1;jettySize=auto;html=1;fillColor=#6666FF;" parent="WbYzUQSLJXm0DS_nstUM-1" source="WbYzUQSLJXm0DS_nstUM-5" target="WbYzUQSLJXm0DS_nstUM-7" edge="1">
          <mxGeometry relative="1" as="geometry" />
        </mxCell>
        <mxCell id="WbYzUQSLJXm0DS_nstUM-5" value="kuis,tugas,ujian,&lt;div&gt;nama.nim,kelas,&lt;/div&gt;&lt;div&gt;absen&lt;/div&gt;" style="whiteSpace=wrap;html=1;strokeWidth=2;fillColor=#6666FF;" parent="WbYzUQSLJXm0DS_nstUM-1" vertex="1">
          <mxGeometry x="70" y="150" width="120" height="60" as="geometry" />
        </mxCell>
        <mxCell id="ER8-Rz6pV-xkdK1jLzsj-1" value="" style="edgeStyle=orthogonalEdgeStyle;rounded=0;orthogonalLoop=1;jettySize=auto;html=1;fillColor=#6666FF;" parent="WbYzUQSLJXm0DS_nstUM-1" source="WbYzUQSLJXm0DS_nstUM-7" target="ER8-Rz6pV-xkdK1jLzsj-0" edge="1">
          <mxGeometry relative="1" as="geometry" />
        </mxCell>
        <mxCell id="WbYzUQSLJXm0DS_nstUM-7" value="masukan nama" style="shape=parallelogram;perimeter=parallelogramPerimeter;whiteSpace=wrap;html=1;fixedSize=1;strokeWidth=2;fillColor=#6666FF;" parent="WbYzUQSLJXm0DS_nstUM-1" vertex="1">
          <mxGeometry x="220" y="150" width="120" height="60" as="geometry" />
        </mxCell>
        <mxCell id="WbYzUQSLJXm0DS_nstUM-18" value="Stop" style="strokeWidth=2;html=1;shape=mxgraph.flowchart.terminator;whiteSpace=wrap;fillColor=#6666FF;" parent="WbYzUQSLJXm0DS_nstUM-1" vertex="1">
          <mxGeometry x="70" y="350" width="100" height="60" as="geometry" />
        </mxCell>
        <mxCell id="ER8-Rz6pV-xkdK1jLzsj-4" value="" style="edgeStyle=orthogonalEdgeStyle;rounded=0;orthogonalLoop=1;jettySize=auto;html=1;fillColor=#6666FF;" parent="WbYzUQSLJXm0DS_nstUM-1" source="ER8-Rz6pV-xkdK1jLzsj-0" target="ER8-Rz6pV-xkdK1jLzsj-2" edge="1">
          <mxGeometry relative="1" as="geometry" />
        </mxCell>
        <mxCell id="ER8-Rz6pV-xkdK1jLzsj-0" value="masukan nim" style="shape=parallelogram;perimeter=parallelogramPerimeter;whiteSpace=wrap;html=1;fixedSize=1;strokeWidth=2;fillColor=#6666FF;" parent="WbYzUQSLJXm0DS_nstUM-1" vertex="1">
          <mxGeometry x="360" y="150" width="120" height="60" as="geometry" />
        </mxCell>
        <mxCell id="ER8-Rz6pV-xkdK1jLzsj-5" value="" style="edgeStyle=orthogonalEdgeStyle;rounded=0;orthogonalLoop=1;jettySize=auto;html=1;fillColor=#6666FF;" parent="WbYzUQSLJXm0DS_nstUM-1" source="ER8-Rz6pV-xkdK1jLzsj-2" target="ER8-Rz6pV-xkdK1jLzsj-3" edge="1">
          <mxGeometry relative="1" as="geometry" />
        </mxCell>
        <mxCell id="ER8-Rz6pV-xkdK1jLzsj-2" value="masukan kelas" style="shape=parallelogram;perimeter=parallelogramPerimeter;whiteSpace=wrap;html=1;fixedSize=1;strokeWidth=2;fillColor=#6666FF;" parent="WbYzUQSLJXm0DS_nstUM-1" vertex="1">
          <mxGeometry x="500" y="150" width="120" height="60" as="geometry" />
        </mxCell>
        <mxCell id="ER8-Rz6pV-xkdK1jLzsj-11" value="" style="edgeStyle=orthogonalEdgeStyle;rounded=0;orthogonalLoop=1;jettySize=auto;html=1;fillColor=#6666FF;" parent="WbYzUQSLJXm0DS_nstUM-1" source="ER8-Rz6pV-xkdK1jLzsj-3" target="ER8-Rz6pV-xkdK1jLzsj-7" edge="1">
          <mxGeometry relative="1" as="geometry" />
        </mxCell>
        <mxCell id="ER8-Rz6pV-xkdK1jLzsj-3" value="masukan absen" style="shape=parallelogram;perimeter=parallelogramPerimeter;whiteSpace=wrap;html=1;fixedSize=1;strokeWidth=2;fillColor=#6666FF;" parent="WbYzUQSLJXm0DS_nstUM-1" vertex="1">
          <mxGeometry x="640" y="150" width="120" height="60" as="geometry" />
        </mxCell>
        <mxCell id="ER8-Rz6pV-xkdK1jLzsj-17" value="" style="edgeStyle=orthogonalEdgeStyle;rounded=0;orthogonalLoop=1;jettySize=auto;html=1;fillColor=#6666FF;" parent="WbYzUQSLJXm0DS_nstUM-1" source="ER8-Rz6pV-xkdK1jLzsj-6" target="ER8-Rz6pV-xkdK1jLzsj-15" edge="1">
          <mxGeometry relative="1" as="geometry" />
        </mxCell>
        <mxCell id="ER8-Rz6pV-xkdK1jLzsj-6" value="nilai = (kuis+tugas+ujian) / 3" style="whiteSpace=wrap;html=1;strokeWidth=2;fillColor=#6666FF;" parent="WbYzUQSLJXm0DS_nstUM-1" vertex="1">
          <mxGeometry x="210" y="250" width="120" height="60" as="geometry" />
        </mxCell>
        <mxCell id="ER8-Rz6pV-xkdK1jLzsj-12" value="" style="edgeStyle=orthogonalEdgeStyle;rounded=0;orthogonalLoop=1;jettySize=auto;html=1;fillColor=#6666FF;" parent="WbYzUQSLJXm0DS_nstUM-1" source="ER8-Rz6pV-xkdK1jLzsj-7" target="ER8-Rz6pV-xkdK1jLzsj-9" edge="1">
          <mxGeometry relative="1" as="geometry" />
        </mxCell>
        <mxCell id="ER8-Rz6pV-xkdK1jLzsj-7" value="masukan nilai&amp;nbsp;&lt;div&gt;kuis&lt;/div&gt;" style="shape=parallelogram;perimeter=parallelogramPerimeter;whiteSpace=wrap;html=1;fixedSize=1;strokeWidth=2;fillColor=#6666FF;" parent="WbYzUQSLJXm0DS_nstUM-1" vertex="1">
          <mxGeometry x="640" y="250" width="120" height="60" as="geometry" />
        </mxCell>
        <mxCell id="ER8-Rz6pV-xkdK1jLzsj-13" value="" style="edgeStyle=orthogonalEdgeStyle;rounded=0;orthogonalLoop=1;jettySize=auto;html=1;fillColor=#6666FF;" parent="WbYzUQSLJXm0DS_nstUM-1" source="ER8-Rz6pV-xkdK1jLzsj-9" target="ER8-Rz6pV-xkdK1jLzsj-10" edge="1">
          <mxGeometry relative="1" as="geometry" />
        </mxCell>
        <mxCell id="ER8-Rz6pV-xkdK1jLzsj-9" value="masukan nilai&amp;nbsp;&lt;div&gt;tugas&lt;/div&gt;" style="shape=parallelogram;perimeter=parallelogramPerimeter;whiteSpace=wrap;html=1;fixedSize=1;strokeWidth=2;fillColor=#6666FF;" parent="WbYzUQSLJXm0DS_nstUM-1" vertex="1">
          <mxGeometry x="500" y="250" width="120" height="60" as="geometry" />
        </mxCell>
        <mxCell id="ER8-Rz6pV-xkdK1jLzsj-14" value="" style="edgeStyle=orthogonalEdgeStyle;rounded=0;orthogonalLoop=1;jettySize=auto;html=1;fillColor=#6666FF;" parent="WbYzUQSLJXm0DS_nstUM-1" source="ER8-Rz6pV-xkdK1jLzsj-10" target="ER8-Rz6pV-xkdK1jLzsj-6" edge="1">
          <mxGeometry relative="1" as="geometry" />
        </mxCell>
        <mxCell id="ER8-Rz6pV-xkdK1jLzsj-10" value="masukan nilai&amp;nbsp;&lt;div&gt;ujian&lt;/div&gt;" style="shape=parallelogram;perimeter=parallelogramPerimeter;whiteSpace=wrap;html=1;fixedSize=1;strokeWidth=2;fillColor=#6666FF;" parent="WbYzUQSLJXm0DS_nstUM-1" vertex="1">
          <mxGeometry x="360" y="250" width="120" height="60" as="geometry" />
        </mxCell>
        <mxCell id="ER8-Rz6pV-xkdK1jLzsj-18" value="" style="edgeStyle=orthogonalEdgeStyle;rounded=0;orthogonalLoop=1;jettySize=auto;html=1;fillColor=#6666FF;" parent="WbYzUQSLJXm0DS_nstUM-1" source="ER8-Rz6pV-xkdK1jLzsj-15" target="WbYzUQSLJXm0DS_nstUM-18" edge="1">
          <mxGeometry relative="1" as="geometry" />
        </mxCell>
        <mxCell id="ER8-Rz6pV-xkdK1jLzsj-15" value="nilai" style="shape=parallelogram;perimeter=parallelogramPerimeter;whiteSpace=wrap;html=1;fixedSize=1;strokeWidth=2;fillColor=#6666FF;" parent="WbYzUQSLJXm0DS_nstUM-1" vertex="1">
          <mxGeometry x="60" y="250" width="120" height="60" as="geometry" />
        </mxCell>
      </root>
    </mxGraphModel>
  </diagram>
  <diagram name="tugas7" id="hTC_JTXvHg2bmj5hEL6A">
    <mxGraphModel dx="979" dy="385" grid="1" gridSize="10" guides="1" tooltips="1" connect="1" arrows="1" fold="1" page="1" pageScale="1" pageWidth="850" pageHeight="1100" math="0" shadow="0">
      <root>
        <mxCell id="mFtTqKYS6uO3U2gqOVHq-0" />
        <mxCell id="mFtTqKYS6uO3U2gqOVHq-1" parent="mFtTqKYS6uO3U2gqOVHq-0" />
        <mxCell id="mFtTqKYS6uO3U2gqOVHq-2" value="" style="edgeStyle=orthogonalEdgeStyle;rounded=0;orthogonalLoop=1;jettySize=auto;html=1;fillColor=#6666FF;" parent="mFtTqKYS6uO3U2gqOVHq-1" source="mFtTqKYS6uO3U2gqOVHq-3" target="mFtTqKYS6uO3U2gqOVHq-5" edge="1">
          <mxGeometry relative="1" as="geometry" />
        </mxCell>
        <mxCell id="mFtTqKYS6uO3U2gqOVHq-3" value="Start" style="strokeWidth=2;html=1;shape=mxgraph.flowchart.terminator;whiteSpace=wrap;fillColor=#6666FF;" parent="mFtTqKYS6uO3U2gqOVHq-1" vertex="1">
          <mxGeometry x="55" y="40" width="100" height="60" as="geometry" />
        </mxCell>
        <mxCell id="mFtTqKYS6uO3U2gqOVHq-4" value="" style="edgeStyle=orthogonalEdgeStyle;rounded=0;orthogonalLoop=1;jettySize=auto;html=1;fillColor=#6666FF;" parent="mFtTqKYS6uO3U2gqOVHq-1" source="mFtTqKYS6uO3U2gqOVHq-5" target="mFtTqKYS6uO3U2gqOVHq-7" edge="1">
          <mxGeometry relative="1" as="geometry" />
        </mxCell>
        <mxCell id="mFtTqKYS6uO3U2gqOVHq-5" value="jamKerja,&lt;span style=&quot;background-color: initial;&quot;&gt;upahPerjam,gaji,&lt;/span&gt;&lt;div&gt;&lt;div&gt;bonus,gajiBonus,&lt;/div&gt;&lt;div&gt;pajak,gajiBulanan&lt;br&gt;&lt;/div&gt;&lt;/div&gt;" style="whiteSpace=wrap;html=1;strokeWidth=2;fillColor=#6666FF;" parent="mFtTqKYS6uO3U2gqOVHq-1" vertex="1">
          <mxGeometry x="20" y="140" width="170" height="80" as="geometry" />
        </mxCell>
        <mxCell id="TTJeDwXw0xWBgE-kgpQh-2" value="" style="edgeStyle=orthogonalEdgeStyle;rounded=0;orthogonalLoop=1;jettySize=auto;html=1;fillColor=#6666FF;" parent="mFtTqKYS6uO3U2gqOVHq-1" source="mFtTqKYS6uO3U2gqOVHq-7" target="TTJeDwXw0xWBgE-kgpQh-1" edge="1">
          <mxGeometry relative="1" as="geometry" />
        </mxCell>
        <mxCell id="mFtTqKYS6uO3U2gqOVHq-7" value="masukan jam&amp;nbsp;&lt;div&gt;kerja&lt;/div&gt;" style="shape=parallelogram;perimeter=parallelogramPerimeter;whiteSpace=wrap;html=1;fixedSize=1;strokeWidth=2;fillColor=#6666FF;" parent="mFtTqKYS6uO3U2gqOVHq-1" vertex="1">
          <mxGeometry x="220" y="150" width="120" height="60" as="geometry" />
        </mxCell>
        <mxCell id="mFtTqKYS6uO3U2gqOVHq-8" value="Stop" style="strokeWidth=2;html=1;shape=mxgraph.flowchart.terminator;whiteSpace=wrap;fillColor=#6666FF;" parent="mFtTqKYS6uO3U2gqOVHq-1" vertex="1">
          <mxGeometry x="80" y="270" width="100" height="60" as="geometry" />
        </mxCell>
        <mxCell id="TTJeDwXw0xWBgE-kgpQh-4" value="" style="edgeStyle=orthogonalEdgeStyle;rounded=0;orthogonalLoop=1;jettySize=auto;html=1;fillColor=#6666FF;" parent="mFtTqKYS6uO3U2gqOVHq-1" source="TTJeDwXw0xWBgE-kgpQh-1" target="TTJeDwXw0xWBgE-kgpQh-3" edge="1">
          <mxGeometry relative="1" as="geometry" />
        </mxCell>
        <mxCell id="TTJeDwXw0xWBgE-kgpQh-1" value="masukan upah&amp;nbsp;&lt;div&gt;per jam&lt;/div&gt;" style="shape=parallelogram;perimeter=parallelogramPerimeter;whiteSpace=wrap;html=1;fixedSize=1;strokeWidth=2;fillColor=#6666FF;" parent="mFtTqKYS6uO3U2gqOVHq-1" vertex="1">
          <mxGeometry x="365" y="150" width="120" height="60" as="geometry" />
        </mxCell>
        <mxCell id="TTJeDwXw0xWBgE-kgpQh-6" value="" style="edgeStyle=orthogonalEdgeStyle;rounded=0;orthogonalLoop=1;jettySize=auto;html=1;fillColor=#6666FF;" parent="mFtTqKYS6uO3U2gqOVHq-1" source="TTJeDwXw0xWBgE-kgpQh-3" target="TTJeDwXw0xWBgE-kgpQh-5" edge="1">
          <mxGeometry relative="1" as="geometry" />
        </mxCell>
        <mxCell id="TTJeDwXw0xWBgE-kgpQh-3" value="&lt;div&gt;&lt;div&gt;gaji = upahperjam * jam kerja&lt;/div&gt;&lt;/div&gt;" style="whiteSpace=wrap;html=1;strokeWidth=2;fillColor=#6666FF;" parent="mFtTqKYS6uO3U2gqOVHq-1" vertex="1">
          <mxGeometry x="520" y="150" width="120" height="60" as="geometry" />
        </mxCell>
        <mxCell id="TTJeDwXw0xWBgE-kgpQh-14" value="" style="edgeStyle=orthogonalEdgeStyle;rounded=0;orthogonalLoop=1;jettySize=auto;html=1;fillColor=#6666FF;" parent="mFtTqKYS6uO3U2gqOVHq-1" source="TTJeDwXw0xWBgE-kgpQh-5" target="TTJeDwXw0xWBgE-kgpQh-8" edge="1">
          <mxGeometry relative="1" as="geometry" />
        </mxCell>
        <mxCell id="TTJeDwXw0xWBgE-kgpQh-5" value="bonus = gaji * 10%" style="whiteSpace=wrap;html=1;strokeWidth=2;fillColor=#6666FF;" parent="mFtTqKYS6uO3U2gqOVHq-1" vertex="1">
          <mxGeometry x="690" y="150" width="120" height="60" as="geometry" />
        </mxCell>
        <mxCell id="TTJeDwXw0xWBgE-kgpQh-12" value="" style="edgeStyle=orthogonalEdgeStyle;rounded=0;orthogonalLoop=1;jettySize=auto;html=1;fillColor=#6666FF;" parent="mFtTqKYS6uO3U2gqOVHq-1" source="TTJeDwXw0xWBgE-kgpQh-7" target="TTJeDwXw0xWBgE-kgpQh-9" edge="1">
          <mxGeometry relative="1" as="geometry" />
        </mxCell>
        <mxCell id="TTJeDwXw0xWBgE-kgpQh-7" value="pajak = gajibonus&amp;nbsp;* 5%" style="whiteSpace=wrap;html=1;strokeWidth=2;fillColor=#6666FF;" parent="mFtTqKYS6uO3U2gqOVHq-1" vertex="1">
          <mxGeometry x="520" y="270" width="120" height="60" as="geometry" />
        </mxCell>
        <mxCell id="TTJeDwXw0xWBgE-kgpQh-13" value="" style="edgeStyle=orthogonalEdgeStyle;rounded=0;orthogonalLoop=1;jettySize=auto;html=1;fillColor=#6666FF;" parent="mFtTqKYS6uO3U2gqOVHq-1" source="TTJeDwXw0xWBgE-kgpQh-8" target="TTJeDwXw0xWBgE-kgpQh-7" edge="1">
          <mxGeometry relative="1" as="geometry" />
        </mxCell>
        <mxCell id="TTJeDwXw0xWBgE-kgpQh-8" value="gajibonus = gaji + bonus" style="whiteSpace=wrap;html=1;strokeWidth=2;fillColor=#6666FF;" parent="mFtTqKYS6uO3U2gqOVHq-1" vertex="1">
          <mxGeometry x="690" y="270" width="120" height="60" as="geometry" />
        </mxCell>
        <mxCell id="TTJeDwXw0xWBgE-kgpQh-11" value="" style="edgeStyle=orthogonalEdgeStyle;rounded=0;orthogonalLoop=1;jettySize=auto;html=1;fillColor=#6666FF;" parent="mFtTqKYS6uO3U2gqOVHq-1" source="TTJeDwXw0xWBgE-kgpQh-9" target="TTJeDwXw0xWBgE-kgpQh-10" edge="1">
          <mxGeometry relative="1" as="geometry" />
        </mxCell>
        <mxCell id="TTJeDwXw0xWBgE-kgpQh-9" value="gajibulanan = gajibonus - pajak" style="whiteSpace=wrap;html=1;strokeWidth=2;fillColor=#6666FF;" parent="mFtTqKYS6uO3U2gqOVHq-1" vertex="1">
          <mxGeometry x="365" y="270" width="120" height="60" as="geometry" />
        </mxCell>
        <mxCell id="TTJeDwXw0xWBgE-kgpQh-15" value="" style="edgeStyle=orthogonalEdgeStyle;rounded=0;orthogonalLoop=1;jettySize=auto;html=1;fillColor=#6666FF;" parent="mFtTqKYS6uO3U2gqOVHq-1" source="TTJeDwXw0xWBgE-kgpQh-10" target="mFtTqKYS6uO3U2gqOVHq-8" edge="1">
          <mxGeometry relative="1" as="geometry" />
        </mxCell>
        <mxCell id="TTJeDwXw0xWBgE-kgpQh-10" value="gaji bulanan" style="shape=parallelogram;perimeter=parallelogramPerimeter;whiteSpace=wrap;html=1;fixedSize=1;strokeWidth=2;fillColor=#6666FF;" parent="mFtTqKYS6uO3U2gqOVHq-1" vertex="1">
          <mxGeometry x="220" y="270" width="120" height="60" as="geometry" />
        </mxCell>
      </root>
    </mxGraphModel>
  </diagram>
  <diagram name="tugas8" id="tsVhzJbw8MtcqaBuJgUK">
    <mxGraphModel dx="1632" dy="642" grid="1" gridSize="10" guides="1" tooltips="1" connect="1" arrows="1" fold="1" page="1" pageScale="1" pageWidth="850" pageHeight="1100" math="0" shadow="0">
      <root>
        <mxCell id="PRn4hhnVZoNtQH6oyMeV-0" />
        <mxCell id="PRn4hhnVZoNtQH6oyMeV-1" parent="PRn4hhnVZoNtQH6oyMeV-0" />
        <mxCell id="PRn4hhnVZoNtQH6oyMeV-2" value="" style="edgeStyle=orthogonalEdgeStyle;rounded=0;orthogonalLoop=1;jettySize=auto;html=1;fillColor=#6666FF;" parent="PRn4hhnVZoNtQH6oyMeV-1" source="PRn4hhnVZoNtQH6oyMeV-3" target="PRn4hhnVZoNtQH6oyMeV-5" edge="1">
          <mxGeometry relative="1" as="geometry" />
        </mxCell>
        <mxCell id="PRn4hhnVZoNtQH6oyMeV-3" value="Start" style="strokeWidth=2;html=1;shape=mxgraph.flowchart.terminator;whiteSpace=wrap;fillColor=#6666FF;" parent="PRn4hhnVZoNtQH6oyMeV-1" vertex="1">
          <mxGeometry x="55" y="40" width="100" height="60" as="geometry" />
        </mxCell>
        <mxCell id="PRn4hhnVZoNtQH6oyMeV-4" value="" style="edgeStyle=orthogonalEdgeStyle;rounded=0;orthogonalLoop=1;jettySize=auto;html=1;fillColor=#6666FF;" parent="PRn4hhnVZoNtQH6oyMeV-1" source="PRn4hhnVZoNtQH6oyMeV-5" target="PRn4hhnVZoNtQH6oyMeV-7" edge="1">
          <mxGeometry relative="1" as="geometry" />
        </mxCell>
        <mxCell id="PRn4hhnVZoNtQH6oyMeV-5" value="&lt;div&gt;&lt;div&gt;s,r,luas_diarsir,luas_persegi,&lt;/div&gt;&lt;/div&gt;&lt;div&gt;luas_lingkaran&lt;/div&gt;" style="whiteSpace=wrap;html=1;strokeWidth=2;fillColor=#6666FF;" parent="PRn4hhnVZoNtQH6oyMeV-1" vertex="1">
          <mxGeometry x="20" y="140" width="170" height="80" as="geometry" />
        </mxCell>
        <mxCell id="PRn4hhnVZoNtQH6oyMeV-6" value="" style="edgeStyle=orthogonalEdgeStyle;rounded=0;orthogonalLoop=1;jettySize=auto;html=1;fillColor=#6666FF;" parent="PRn4hhnVZoNtQH6oyMeV-1" source="PRn4hhnVZoNtQH6oyMeV-7" target="PRn4hhnVZoNtQH6oyMeV-10" edge="1">
          <mxGeometry relative="1" as="geometry" />
        </mxCell>
        <mxCell id="PRn4hhnVZoNtQH6oyMeV-7" value="masukan&amp;nbsp;&lt;div&gt;&lt;div&gt;&amp;nbsp;sisi&lt;/div&gt;&lt;/div&gt;" style="shape=parallelogram;perimeter=parallelogramPerimeter;whiteSpace=wrap;html=1;fixedSize=1;strokeWidth=2;fillColor=#6666FF;" parent="PRn4hhnVZoNtQH6oyMeV-1" vertex="1">
          <mxGeometry x="45" y="280" width="120" height="60" as="geometry" />
        </mxCell>
        <mxCell id="PRn4hhnVZoNtQH6oyMeV-8" value="Stop" style="strokeWidth=2;html=1;shape=mxgraph.flowchart.terminator;whiteSpace=wrap;fillColor=#6666FF;" parent="PRn4hhnVZoNtQH6oyMeV-1" vertex="1">
          <mxGeometry x="720" y="270" width="100" height="60" as="geometry" />
        </mxCell>
        <mxCell id="PRn4hhnVZoNtQH6oyMeV-9" value="" style="edgeStyle=orthogonalEdgeStyle;rounded=0;orthogonalLoop=1;jettySize=auto;html=1;fillColor=#6666FF;" parent="PRn4hhnVZoNtQH6oyMeV-1" source="PRn4hhnVZoNtQH6oyMeV-10" target="PRn4hhnVZoNtQH6oyMeV-12" edge="1">
          <mxGeometry relative="1" as="geometry" />
        </mxCell>
        <mxCell id="PRn4hhnVZoNtQH6oyMeV-10" value="masukan radius" style="shape=parallelogram;perimeter=parallelogramPerimeter;whiteSpace=wrap;html=1;fixedSize=1;strokeWidth=2;fillColor=#6666FF;" parent="PRn4hhnVZoNtQH6oyMeV-1" vertex="1">
          <mxGeometry x="45" y="390" width="120" height="60" as="geometry" />
        </mxCell>
        <mxCell id="PRn4hhnVZoNtQH6oyMeV-11" value="" style="edgeStyle=orthogonalEdgeStyle;rounded=0;orthogonalLoop=1;jettySize=auto;html=1;fillColor=#6666FF;" parent="PRn4hhnVZoNtQH6oyMeV-1" source="PRn4hhnVZoNtQH6oyMeV-12" target="PRn4hhnVZoNtQH6oyMeV-14" edge="1">
          <mxGeometry relative="1" as="geometry" />
        </mxCell>
        <mxCell id="PRn4hhnVZoNtQH6oyMeV-12" value="&lt;div&gt;&lt;div&gt;luas_persegi = s * s&lt;/div&gt;&lt;/div&gt;" style="whiteSpace=wrap;html=1;strokeWidth=2;fillColor=#6666FF;" parent="PRn4hhnVZoNtQH6oyMeV-1" vertex="1">
          <mxGeometry x="230" y="390" width="120" height="60" as="geometry" />
        </mxCell>
        <mxCell id="PRn4hhnVZoNtQH6oyMeV-13" value="" style="edgeStyle=orthogonalEdgeStyle;rounded=0;orthogonalLoop=1;jettySize=auto;html=1;fillColor=#6666FF;" parent="PRn4hhnVZoNtQH6oyMeV-1" source="PRn4hhnVZoNtQH6oyMeV-14" target="PRn4hhnVZoNtQH6oyMeV-18" edge="1">
          <mxGeometry relative="1" as="geometry" />
        </mxCell>
        <mxCell id="PRn4hhnVZoNtQH6oyMeV-14" value="luas_lingkaran = (3.14) * r * r" style="whiteSpace=wrap;html=1;strokeWidth=2;fillColor=#6666FF;" parent="PRn4hhnVZoNtQH6oyMeV-1" vertex="1">
          <mxGeometry x="230" y="280" width="120" height="60" as="geometry" />
        </mxCell>
        <mxCell id="uI14Ov9RM3Ug8sWWJ49f-4" value="" style="edgeStyle=orthogonalEdgeStyle;rounded=0;orthogonalLoop=1;jettySize=auto;html=1;fillColor=#6666FF;" parent="PRn4hhnVZoNtQH6oyMeV-1" source="PRn4hhnVZoNtQH6oyMeV-18" target="uI14Ov9RM3Ug8sWWJ49f-2" edge="1">
          <mxGeometry relative="1" as="geometry" />
        </mxCell>
        <mxCell id="uI14Ov9RM3Ug8sWWJ49f-6" style="edgeStyle=orthogonalEdgeStyle;rounded=0;orthogonalLoop=1;jettySize=auto;html=1;entryX=0;entryY=0.75;entryDx=0;entryDy=0;fillColor=#6666FF;" parent="PRn4hhnVZoNtQH6oyMeV-1" source="PRn4hhnVZoNtQH6oyMeV-18" target="uI14Ov9RM3Ug8sWWJ49f-1" edge="1">
          <mxGeometry relative="1" as="geometry">
            <Array as="points">
              <mxPoint x="400" y="180" />
              <mxPoint x="400" y="314" />
            </Array>
          </mxGeometry>
        </mxCell>
        <mxCell id="uI14Ov9RM3Ug8sWWJ49f-7" style="edgeStyle=orthogonalEdgeStyle;rounded=0;orthogonalLoop=1;jettySize=auto;html=1;entryX=0;entryY=0.75;entryDx=0;entryDy=0;fillColor=#6666FF;" parent="PRn4hhnVZoNtQH6oyMeV-1" source="PRn4hhnVZoNtQH6oyMeV-18" target="PRn4hhnVZoNtQH6oyMeV-22" edge="1">
          <mxGeometry relative="1" as="geometry">
            <Array as="points">
              <mxPoint x="400" y="180" />
              <mxPoint x="400" y="434" />
            </Array>
          </mxGeometry>
        </mxCell>
        <mxCell id="PRn4hhnVZoNtQH6oyMeV-18" value="luas_diarsir = luas_persegi - luas_lingkaran" style="whiteSpace=wrap;html=1;strokeWidth=2;fillColor=#6666FF;" parent="PRn4hhnVZoNtQH6oyMeV-1" vertex="1">
          <mxGeometry x="230" y="150" width="120" height="60" as="geometry" />
        </mxCell>
        <mxCell id="uI14Ov9RM3Ug8sWWJ49f-12" style="edgeStyle=orthogonalEdgeStyle;rounded=0;orthogonalLoop=1;jettySize=auto;html=1;fillColor=#6666FF;" parent="PRn4hhnVZoNtQH6oyMeV-1" source="PRn4hhnVZoNtQH6oyMeV-22" edge="1">
          <mxGeometry relative="1" as="geometry">
            <mxPoint x="680" y="300" as="targetPoint" />
          </mxGeometry>
        </mxCell>
        <mxCell id="PRn4hhnVZoNtQH6oyMeV-22" value="&lt;div&gt;&lt;span style=&quot;background-color: initial;&quot;&gt;luas lahan yg tidak di&amp;nbsp;&lt;/span&gt;&lt;br&gt;&lt;/div&gt;&lt;div&gt;tanami bunga = luas_diarsir&lt;/div&gt;" style="shape=parallelogram;perimeter=parallelogramPerimeter;whiteSpace=wrap;html=1;fixedSize=1;strokeWidth=2;fillColor=#6666FF;" parent="PRn4hhnVZoNtQH6oyMeV-1" vertex="1">
          <mxGeometry x="450" y="390" width="190" height="60" as="geometry" />
        </mxCell>
        <mxCell id="uI14Ov9RM3Ug8sWWJ49f-11" style="edgeStyle=orthogonalEdgeStyle;rounded=0;orthogonalLoop=1;jettySize=auto;html=1;fillColor=#6666FF;" parent="PRn4hhnVZoNtQH6oyMeV-1" edge="1">
          <mxGeometry relative="1" as="geometry">
            <mxPoint x="680" y="300" as="targetPoint" />
            <mxPoint x="610" y="180" as="sourcePoint" />
            <Array as="points">
              <mxPoint x="550" y="180" />
              <mxPoint x="680" y="180" />
            </Array>
          </mxGeometry>
        </mxCell>
        <mxCell id="uI14Ov9RM3Ug8sWWJ49f-2" value="nilaisisi = s" style="shape=parallelogram;perimeter=parallelogramPerimeter;whiteSpace=wrap;html=1;fixedSize=1;strokeWidth=2;fillColor=#6666FF;" parent="PRn4hhnVZoNtQH6oyMeV-1" vertex="1">
          <mxGeometry x="450" y="150" width="120" height="60" as="geometry" />
        </mxCell>
        <mxCell id="uI14Ov9RM3Ug8sWWJ49f-9" style="edgeStyle=orthogonalEdgeStyle;rounded=0;orthogonalLoop=1;jettySize=auto;html=1;fillColor=#6666FF;" parent="PRn4hhnVZoNtQH6oyMeV-1" source="uI14Ov9RM3Ug8sWWJ49f-1" target="PRn4hhnVZoNtQH6oyMeV-8" edge="1">
          <mxGeometry relative="1" as="geometry">
            <Array as="points">
              <mxPoint x="650" y="300" />
              <mxPoint x="650" y="300" />
            </Array>
          </mxGeometry>
        </mxCell>
        <mxCell id="uI14Ov9RM3Ug8sWWJ49f-14" style="edgeStyle=orthogonalEdgeStyle;rounded=0;orthogonalLoop=1;jettySize=auto;html=1;fillColor=#6666FF;" parent="PRn4hhnVZoNtQH6oyMeV-1" source="uI14Ov9RM3Ug8sWWJ49f-1" edge="1">
          <mxGeometry relative="1" as="geometry">
            <mxPoint x="650" y="300" as="targetPoint" />
          </mxGeometry>
        </mxCell>
        <mxCell id="uI14Ov9RM3Ug8sWWJ49f-1" value="&lt;div&gt;nilairadius = r&lt;/div&gt;" style="shape=parallelogram;perimeter=parallelogramPerimeter;whiteSpace=wrap;html=1;fixedSize=1;strokeWidth=2;fillColor=#6666FF;" parent="PRn4hhnVZoNtQH6oyMeV-1" vertex="1">
          <mxGeometry x="455" y="270" width="120" height="60" as="geometry" />
        </mxCell>
      </root>
    </mxGraphModel>
  </diagram>
  <diagram name="tugas9" id="7GkWp10MZrxH2W-o4RuU">
    <mxGraphModel dx="979" dy="385" grid="1" gridSize="10" guides="1" tooltips="1" connect="1" arrows="1" fold="1" page="1" pageScale="1" pageWidth="850" pageHeight="1100" math="0" shadow="0">
      <root>
        <mxCell id="VbzAgoHcocG3LI-2ikA_-0" />
        <mxCell id="VbzAgoHcocG3LI-2ikA_-1" parent="VbzAgoHcocG3LI-2ikA_-0" />
        <mxCell id="VbzAgoHcocG3LI-2ikA_-2" value="" style="edgeStyle=orthogonalEdgeStyle;rounded=0;orthogonalLoop=1;jettySize=auto;html=1;fillColor=#6666FF;" parent="VbzAgoHcocG3LI-2ikA_-1" source="VbzAgoHcocG3LI-2ikA_-3" target="VbzAgoHcocG3LI-2ikA_-5" edge="1">
          <mxGeometry relative="1" as="geometry" />
        </mxCell>
        <mxCell id="VbzAgoHcocG3LI-2ikA_-3" value="Start" style="strokeWidth=2;html=1;shape=mxgraph.flowchart.terminator;whiteSpace=wrap;fillColor=#6666FF;" parent="VbzAgoHcocG3LI-2ikA_-1" vertex="1">
          <mxGeometry x="30" y="40" width="100" height="60" as="geometry" />
        </mxCell>
        <mxCell id="VbzAgoHcocG3LI-2ikA_-4" value="" style="edgeStyle=orthogonalEdgeStyle;rounded=0;orthogonalLoop=1;jettySize=auto;html=1;fillColor=#6666FF;" parent="VbzAgoHcocG3LI-2ikA_-1" source="VbzAgoHcocG3LI-2ikA_-5" target="VbzAgoHcocG3LI-2ikA_-7" edge="1">
          <mxGeometry relative="1" as="geometry" />
        </mxCell>
        <mxCell id="VbzAgoHcocG3LI-2ikA_-5" value="&lt;div&gt;&lt;div&gt;teh,kopi,roti,&lt;/div&gt;&lt;div&gt;jmlRoti,jmlTeh,jmlKopi,&lt;/div&gt;&lt;/div&gt;&lt;div&gt;harga,diskon&lt;/div&gt;" style="whiteSpace=wrap;html=1;strokeWidth=2;fillColor=#6666FF;" parent="VbzAgoHcocG3LI-2ikA_-1" vertex="1">
          <mxGeometry x="180" y="30" width="170" height="80" as="geometry" />
        </mxCell>
        <mxCell id="VbzAgoHcocG3LI-2ikA_-6" value="" style="edgeStyle=orthogonalEdgeStyle;rounded=0;orthogonalLoop=1;jettySize=auto;html=1;fillColor=#6666FF;" parent="VbzAgoHcocG3LI-2ikA_-1" source="VbzAgoHcocG3LI-2ikA_-7" target="VbzAgoHcocG3LI-2ikA_-10" edge="1">
          <mxGeometry relative="1" as="geometry" />
        </mxCell>
        <mxCell id="VbzAgoHcocG3LI-2ikA_-7" value="masukan nama pelanggan" style="shape=parallelogram;perimeter=parallelogramPerimeter;whiteSpace=wrap;html=1;fixedSize=1;strokeWidth=2;fillColor=#6666FF;" parent="VbzAgoHcocG3LI-2ikA_-1" vertex="1">
          <mxGeometry x="390" y="40" width="120" height="60" as="geometry" />
        </mxCell>
        <mxCell id="VbzAgoHcocG3LI-2ikA_-8" value="Stop" style="strokeWidth=2;html=1;shape=mxgraph.flowchart.terminator;whiteSpace=wrap;fillColor=#6666FF;" parent="VbzAgoHcocG3LI-2ikA_-1" vertex="1">
          <mxGeometry x="400" y="280" width="100" height="60" as="geometry" />
        </mxCell>
        <mxCell id="AoKZcDTC8FxPCPA4thtN-4" value="" style="edgeStyle=orthogonalEdgeStyle;rounded=0;orthogonalLoop=1;jettySize=auto;html=1;fillColor=#6666FF;" parent="VbzAgoHcocG3LI-2ikA_-1" source="VbzAgoHcocG3LI-2ikA_-10" target="55d-Yt6lSfbNSK2hS6jL-0" edge="1">
          <mxGeometry relative="1" as="geometry" />
        </mxCell>
        <mxCell id="VbzAgoHcocG3LI-2ikA_-10" value="masukan jml pembelian kopi" style="shape=parallelogram;perimeter=parallelogramPerimeter;whiteSpace=wrap;html=1;fixedSize=1;strokeWidth=2;fillColor=#6666FF;" parent="VbzAgoHcocG3LI-2ikA_-1" vertex="1">
          <mxGeometry x="530" y="40" width="120" height="60" as="geometry" />
        </mxCell>
        <mxCell id="AoKZcDTC8FxPCPA4thtN-5" value="" style="edgeStyle=orthogonalEdgeStyle;rounded=0;orthogonalLoop=1;jettySize=auto;html=1;fillColor=#6666FF;" parent="VbzAgoHcocG3LI-2ikA_-1" source="55d-Yt6lSfbNSK2hS6jL-0" target="55d-Yt6lSfbNSK2hS6jL-1" edge="1">
          <mxGeometry relative="1" as="geometry" />
        </mxCell>
        <mxCell id="55d-Yt6lSfbNSK2hS6jL-0" value="masukan jml pembelian teh" style="shape=parallelogram;perimeter=parallelogramPerimeter;whiteSpace=wrap;html=1;fixedSize=1;strokeWidth=2;fillColor=#6666FF;" parent="VbzAgoHcocG3LI-2ikA_-1" vertex="1">
          <mxGeometry x="680" y="40" width="120" height="60" as="geometry" />
        </mxCell>
        <mxCell id="AoKZcDTC8FxPCPA4thtN-6" value="" style="edgeStyle=orthogonalEdgeStyle;rounded=0;orthogonalLoop=1;jettySize=auto;html=1;fillColor=#6666FF;" parent="VbzAgoHcocG3LI-2ikA_-1" source="55d-Yt6lSfbNSK2hS6jL-1" target="AoKZcDTC8FxPCPA4thtN-0" edge="1">
          <mxGeometry relative="1" as="geometry" />
        </mxCell>
        <mxCell id="55d-Yt6lSfbNSK2hS6jL-1" value="masukan jml pembelian roti" style="shape=parallelogram;perimeter=parallelogramPerimeter;whiteSpace=wrap;html=1;fixedSize=1;strokeWidth=2;fillColor=#6666FF;" parent="VbzAgoHcocG3LI-2ikA_-1" vertex="1">
          <mxGeometry x="680" y="170" width="120" height="60" as="geometry" />
        </mxCell>
        <mxCell id="AoKZcDTC8FxPCPA4thtN-7" value="" style="edgeStyle=orthogonalEdgeStyle;rounded=0;orthogonalLoop=1;jettySize=auto;html=1;fillColor=#6666FF;" parent="VbzAgoHcocG3LI-2ikA_-1" source="AoKZcDTC8FxPCPA4thtN-0" target="AoKZcDTC8FxPCPA4thtN-3" edge="1">
          <mxGeometry relative="1" as="geometry" />
        </mxCell>
        <mxCell id="AoKZcDTC8FxPCPA4thtN-0" value="kopi =&amp;nbsp;&lt;div&gt;jmlKopi *&amp;nbsp;12.000&lt;/div&gt;" style="whiteSpace=wrap;html=1;strokeWidth=2;fillColor=#6666FF;" parent="VbzAgoHcocG3LI-2ikA_-1" vertex="1">
          <mxGeometry x="530" y="170" width="120" height="60" as="geometry" />
        </mxCell>
        <mxCell id="AoKZcDTC8FxPCPA4thtN-10" value="" style="edgeStyle=orthogonalEdgeStyle;rounded=0;orthogonalLoop=1;jettySize=auto;html=1;fillColor=#6666FF;" parent="VbzAgoHcocG3LI-2ikA_-1" source="AoKZcDTC8FxPCPA4thtN-2" target="AoKZcDTC8FxPCPA4thtN-9" edge="1">
          <mxGeometry relative="1" as="geometry" />
        </mxCell>
        <mxCell id="AoKZcDTC8FxPCPA4thtN-2" value="teh =&amp;nbsp;&lt;div&gt;jmlTeh * 7.000&lt;/div&gt;" style="whiteSpace=wrap;html=1;strokeWidth=2;fillColor=#6666FF;" parent="VbzAgoHcocG3LI-2ikA_-1" vertex="1">
          <mxGeometry x="200" y="170" width="120" height="60" as="geometry" />
        </mxCell>
        <mxCell id="AoKZcDTC8FxPCPA4thtN-8" value="" style="edgeStyle=orthogonalEdgeStyle;rounded=0;orthogonalLoop=1;jettySize=auto;html=1;fillColor=#6666FF;" parent="VbzAgoHcocG3LI-2ikA_-1" source="AoKZcDTC8FxPCPA4thtN-3" target="AoKZcDTC8FxPCPA4thtN-2" edge="1">
          <mxGeometry relative="1" as="geometry" />
        </mxCell>
        <mxCell id="AoKZcDTC8FxPCPA4thtN-3" value="roti =&amp;nbsp;&lt;div&gt;jmlRoti * 20.000&lt;/div&gt;" style="whiteSpace=wrap;html=1;strokeWidth=2;fillColor=#6666FF;" parent="VbzAgoHcocG3LI-2ikA_-1" vertex="1">
          <mxGeometry x="365" y="170" width="120" height="60" as="geometry" />
        </mxCell>
        <mxCell id="AoKZcDTC8FxPCPA4thtN-12" value="" style="edgeStyle=orthogonalEdgeStyle;rounded=0;orthogonalLoop=1;jettySize=auto;html=1;fillColor=#6666FF;" parent="VbzAgoHcocG3LI-2ikA_-1" source="AoKZcDTC8FxPCPA4thtN-9" target="AoKZcDTC8FxPCPA4thtN-11" edge="1">
          <mxGeometry relative="1" as="geometry" />
        </mxCell>
        <mxCell id="AoKZcDTC8FxPCPA4thtN-9" value="diskon = (kopi+teh+roti) * 10%" style="whiteSpace=wrap;html=1;strokeWidth=2;fillColor=#6666FF;" parent="VbzAgoHcocG3LI-2ikA_-1" vertex="1">
          <mxGeometry x="40" y="170" width="120" height="60" as="geometry" />
        </mxCell>
        <mxCell id="AoKZcDTC8FxPCPA4thtN-16" value="" style="edgeStyle=orthogonalEdgeStyle;rounded=0;orthogonalLoop=1;jettySize=auto;html=1;fillColor=#6666FF;" parent="VbzAgoHcocG3LI-2ikA_-1" source="AoKZcDTC8FxPCPA4thtN-11" target="AoKZcDTC8FxPCPA4thtN-14" edge="1">
          <mxGeometry relative="1" as="geometry" />
        </mxCell>
        <mxCell id="AoKZcDTC8FxPCPA4thtN-11" value="harga = (roti+teh+kopi) - diskon" style="whiteSpace=wrap;html=1;strokeWidth=2;fillColor=#6666FF;" parent="VbzAgoHcocG3LI-2ikA_-1" vertex="1">
          <mxGeometry x="15" y="280" width="170" height="60" as="geometry" />
        </mxCell>
        <mxCell id="AoKZcDTC8FxPCPA4thtN-17" value="" style="edgeStyle=orthogonalEdgeStyle;rounded=0;orthogonalLoop=1;jettySize=auto;html=1;fillColor=#6666FF;" parent="VbzAgoHcocG3LI-2ikA_-1" source="AoKZcDTC8FxPCPA4thtN-14" target="VbzAgoHcocG3LI-2ikA_-8" edge="1">
          <mxGeometry relative="1" as="geometry" />
        </mxCell>
        <mxCell id="AoKZcDTC8FxPCPA4thtN-14" value="harga" style="shape=parallelogram;perimeter=parallelogramPerimeter;whiteSpace=wrap;html=1;fixedSize=1;strokeWidth=2;fillColor=#6666FF;" parent="VbzAgoHcocG3LI-2ikA_-1" vertex="1">
          <mxGeometry x="230" y="280" width="120" height="60" as="geometry" />
        </mxCell>
      </root>
    </mxGraphModel>
  </diagram>
  <diagram name="tugas10" id="aaGooz1paH0fA9xu_TI7">
    <mxGraphModel dx="1152" dy="453" grid="1" gridSize="10" guides="1" tooltips="1" connect="1" arrows="1" fold="1" page="1" pageScale="1" pageWidth="850" pageHeight="1100" math="0" shadow="0">
      <root>
        <mxCell id="Ax1-MKoKnWqwbo4IJMMD-0" />
        <mxCell id="Ax1-MKoKnWqwbo4IJMMD-1" parent="Ax1-MKoKnWqwbo4IJMMD-0" />
        <mxCell id="Ax1-MKoKnWqwbo4IJMMD-2" value="" style="edgeStyle=orthogonalEdgeStyle;rounded=0;orthogonalLoop=1;jettySize=auto;html=1;fillColor=#6666FF;" parent="Ax1-MKoKnWqwbo4IJMMD-1" source="Ax1-MKoKnWqwbo4IJMMD-3" target="Ax1-MKoKnWqwbo4IJMMD-5" edge="1">
          <mxGeometry relative="1" as="geometry" />
        </mxCell>
        <mxCell id="Ax1-MKoKnWqwbo4IJMMD-3" value="Start" style="strokeWidth=2;html=1;shape=mxgraph.flowchart.terminator;whiteSpace=wrap;fillColor=#6666FF;" parent="Ax1-MKoKnWqwbo4IJMMD-1" vertex="1">
          <mxGeometry x="30" y="40" width="100" height="60" as="geometry" />
        </mxCell>
        <mxCell id="Ax1-MKoKnWqwbo4IJMMD-4" value="" style="edgeStyle=orthogonalEdgeStyle;rounded=0;orthogonalLoop=1;jettySize=auto;html=1;fillColor=#6666FF;" parent="Ax1-MKoKnWqwbo4IJMMD-1" source="Ax1-MKoKnWqwbo4IJMMD-5" target="Ax1-MKoKnWqwbo4IJMMD-7" edge="1">
          <mxGeometry relative="1" as="geometry" />
        </mxCell>
        <mxCell id="Ax1-MKoKnWqwbo4IJMMD-5" value="&lt;div&gt;&lt;div&gt;teh,kopi,roti,&lt;/div&gt;&lt;div&gt;jmlRoti,jmlTeh,jmlKopi,&lt;/div&gt;&lt;/div&gt;&lt;div&gt;harga,diskon&lt;/div&gt;" style="whiteSpace=wrap;html=1;strokeWidth=2;fillColor=#6666FF;" parent="Ax1-MKoKnWqwbo4IJMMD-1" vertex="1">
          <mxGeometry x="180" y="30" width="170" height="80" as="geometry" />
        </mxCell>
        <mxCell id="_EtKm87tRxYMleaXG7iR-0" value="" style="edgeStyle=orthogonalEdgeStyle;rounded=0;orthogonalLoop=1;jettySize=auto;html=1;" edge="1" parent="Ax1-MKoKnWqwbo4IJMMD-1" source="Ax1-MKoKnWqwbo4IJMMD-7" target="Ax1-MKoKnWqwbo4IJMMD-16">
          <mxGeometry relative="1" as="geometry" />
        </mxCell>
        <mxCell id="Ax1-MKoKnWqwbo4IJMMD-7" value="masukan pemakain&lt;div&gt;&lt;span style=&quot;background-color: initial;&quot;&gt;listrik&amp;nbsp;&lt;/span&gt;&lt;/div&gt;" style="shape=parallelogram;perimeter=parallelogramPerimeter;whiteSpace=wrap;html=1;fixedSize=1;strokeWidth=2;fillColor=#6666FF;" parent="Ax1-MKoKnWqwbo4IJMMD-1" vertex="1">
          <mxGeometry x="390" y="40" width="150" height="60" as="geometry" />
        </mxCell>
        <mxCell id="Ax1-MKoKnWqwbo4IJMMD-8" value="Stop" style="strokeWidth=2;html=1;shape=mxgraph.flowchart.terminator;whiteSpace=wrap;fillColor=#6666FF;" parent="Ax1-MKoKnWqwbo4IJMMD-1" vertex="1">
          <mxGeometry x="210" y="310" width="100" height="60" as="geometry" />
        </mxCell>
        <mxCell id="yGHR3qx-GUQsWSeTXnO5-2" value="" style="edgeStyle=orthogonalEdgeStyle;rounded=0;orthogonalLoop=1;jettySize=auto;html=1;fillColor=#6666FF;" parent="Ax1-MKoKnWqwbo4IJMMD-1" source="Ax1-MKoKnWqwbo4IJMMD-16" target="yGHR3qx-GUQsWSeTXnO5-1" edge="1">
          <mxGeometry relative="1" as="geometry" />
        </mxCell>
        <mxCell id="Ax1-MKoKnWqwbo4IJMMD-16" value="tarif =&amp;nbsp;&amp;nbsp;&lt;div&gt;pemakaian * 1.500&lt;/div&gt;" style="whiteSpace=wrap;html=1;strokeWidth=2;fillColor=#6666FF;" parent="Ax1-MKoKnWqwbo4IJMMD-1" vertex="1">
          <mxGeometry x="570" y="40" width="120" height="60" as="geometry" />
        </mxCell>
        <mxCell id="B8EE3NjNP91-EvLemCn0-0" value="" style="edgeStyle=orthogonalEdgeStyle;rounded=0;orthogonalLoop=1;jettySize=auto;html=1;fillColor=#6666FF;" parent="Ax1-MKoKnWqwbo4IJMMD-1" source="Ax1-MKoKnWqwbo4IJMMD-20" target="yGHR3qx-GUQsWSeTXnO5-8" edge="1">
          <mxGeometry relative="1" as="geometry" />
        </mxCell>
        <mxCell id="Ax1-MKoKnWqwbo4IJMMD-20" value="ket = &quot;tidak melebihi penggunaan&quot;" style="whiteSpace=wrap;html=1;strokeWidth=2;fillColor=#6666FF;" parent="Ax1-MKoKnWqwbo4IJMMD-1" vertex="1">
          <mxGeometry x="390" y="170" width="120" height="60" as="geometry" />
        </mxCell>
        <mxCell id="yGHR3qx-GUQsWSeTXnO5-4" value="" style="edgeStyle=orthogonalEdgeStyle;rounded=0;orthogonalLoop=1;jettySize=auto;html=1;fillColor=#6666FF;" parent="Ax1-MKoKnWqwbo4IJMMD-1" source="yGHR3qx-GUQsWSeTXnO5-1" target="Ax1-MKoKnWqwbo4IJMMD-20" edge="1">
          <mxGeometry relative="1" as="geometry" />
        </mxCell>
        <mxCell id="yGHR3qx-GUQsWSeTXnO5-7" value="" style="edgeStyle=orthogonalEdgeStyle;rounded=0;orthogonalLoop=1;jettySize=auto;html=1;fillColor=#6666FF;" parent="Ax1-MKoKnWqwbo4IJMMD-1" source="yGHR3qx-GUQsWSeTXnO5-1" target="yGHR3qx-GUQsWSeTXnO5-3" edge="1">
          <mxGeometry relative="1" as="geometry" />
        </mxCell>
        <mxCell id="yGHR3qx-GUQsWSeTXnO5-1" value="pemakain &amp;gt;= 500" style="rhombus;whiteSpace=wrap;html=1;strokeWidth=2;fillColor=#6666FF;" parent="Ax1-MKoKnWqwbo4IJMMD-1" vertex="1">
          <mxGeometry x="570" y="145" width="120" height="110" as="geometry" />
        </mxCell>
        <mxCell id="B8EE3NjNP91-EvLemCn0-1" value="" style="edgeStyle=orthogonalEdgeStyle;rounded=0;orthogonalLoop=1;jettySize=auto;html=1;fillColor=#6666FF;" parent="Ax1-MKoKnWqwbo4IJMMD-1" source="yGHR3qx-GUQsWSeTXnO5-3" target="yGHR3qx-GUQsWSeTXnO5-8" edge="1">
          <mxGeometry relative="1" as="geometry" />
        </mxCell>
        <mxCell id="yGHR3qx-GUQsWSeTXnO5-3" value="ket = &quot;melebihi penggunaan&quot;" style="whiteSpace=wrap;html=1;strokeWidth=2;fillColor=#6666FF;" parent="Ax1-MKoKnWqwbo4IJMMD-1" vertex="1">
          <mxGeometry x="570" y="310" width="120" height="60" as="geometry" />
        </mxCell>
        <mxCell id="yGHR3qx-GUQsWSeTXnO5-5" value="true" style="text;html=1;align=center;verticalAlign=middle;resizable=0;points=[];autosize=1;strokeColor=none;fillColor=none;" parent="Ax1-MKoKnWqwbo4IJMMD-1" vertex="1">
          <mxGeometry x="575" y="250" width="40" height="30" as="geometry" />
        </mxCell>
        <mxCell id="yGHR3qx-GUQsWSeTXnO5-6" value="false" style="text;html=1;align=center;verticalAlign=middle;resizable=0;points=[];autosize=1;strokeColor=none;fillColor=none;" parent="Ax1-MKoKnWqwbo4IJMMD-1" vertex="1">
          <mxGeometry x="525" y="168" width="50" height="30" as="geometry" />
        </mxCell>
        <mxCell id="B8EE3NjNP91-EvLemCn0-2" value="" style="edgeStyle=orthogonalEdgeStyle;rounded=0;orthogonalLoop=1;jettySize=auto;html=1;fillColor=#6666FF;" parent="Ax1-MKoKnWqwbo4IJMMD-1" source="yGHR3qx-GUQsWSeTXnO5-8" target="Ax1-MKoKnWqwbo4IJMMD-8" edge="1">
          <mxGeometry relative="1" as="geometry" />
        </mxCell>
        <mxCell id="yGHR3qx-GUQsWSeTXnO5-8" value="tarif &amp;amp; ket" style="shape=parallelogram;perimeter=parallelogramPerimeter;whiteSpace=wrap;html=1;fixedSize=1;strokeWidth=2;fillColor=#6666FF;" parent="Ax1-MKoKnWqwbo4IJMMD-1" vertex="1">
          <mxGeometry x="375" y="310" width="150" height="60" as="geometry" />
        </mxCell>
      </root>
    </mxGraphModel>
  </diagram>
</mxfile>
